G04 #@! TF.GenerationSoftware,KiCad,Pcbnew,(5.1.9-0-10_14)*
G04 #@! TF.CreationDate,2021-06-22T22:42:15-05:00*
G04 #@! TF.ProjectId,HallEffectXY-Endstop,48616c6c-4566-4666-9563-7458592d456e,A*
G04 #@! TF.SameCoordinates,Original*
G04 #@! TF.FileFunction,Copper,L1,Top*
G04 #@! TF.FilePolarity,Positive*
%FSLAX46Y46*%
G04 Gerber Fmt 4.6, Leading zero omitted, Abs format (unit mm)*
G04 Created by KiCad (PCBNEW (5.1.9-0-10_14)) date 2021-06-22 22:42:15*
%MOMM*%
%LPD*%
G01*
G04 APERTURE LIST*
G04 #@! TA.AperFunction,SMDPad,CuDef*
%ADD10R,0.900000X0.800000*%
G04 #@! TD*
G04 #@! TA.AperFunction,ComponentPad*
%ADD11C,1.524000*%
G04 #@! TD*
G04 #@! TA.AperFunction,SMDPad,CuDef*
%ADD12R,1.060000X0.650000*%
G04 #@! TD*
G04 #@! TA.AperFunction,SMDPad,CuDef*
%ADD13R,0.800000X0.900000*%
G04 #@! TD*
G04 #@! TA.AperFunction,ComponentPad*
%ADD14O,1.700000X1.700000*%
G04 #@! TD*
G04 #@! TA.AperFunction,ComponentPad*
%ADD15R,1.700000X1.700000*%
G04 #@! TD*
G04 #@! TA.AperFunction,ViaPad*
%ADD16C,1.000000*%
G04 #@! TD*
G04 #@! TA.AperFunction,Conductor*
%ADD17C,0.508000*%
G04 #@! TD*
G04 #@! TA.AperFunction,Conductor*
%ADD18C,0.254000*%
G04 #@! TD*
G04 #@! TA.AperFunction,Conductor*
%ADD19C,0.100000*%
G04 #@! TD*
G04 APERTURE END LIST*
G04 #@! TA.AperFunction,SMDPad,CuDef*
G36*
G01*
X148769000Y-104465250D02*
X148769000Y-103552750D01*
G75*
G02*
X149012750Y-103309000I243750J0D01*
G01*
X149500250Y-103309000D01*
G75*
G02*
X149744000Y-103552750I0J-243750D01*
G01*
X149744000Y-104465250D01*
G75*
G02*
X149500250Y-104709000I-243750J0D01*
G01*
X149012750Y-104709000D01*
G75*
G02*
X148769000Y-104465250I0J243750D01*
G01*
G37*
G04 #@! TD.AperFunction*
G04 #@! TA.AperFunction,SMDPad,CuDef*
G36*
G01*
X150644000Y-104465250D02*
X150644000Y-103552750D01*
G75*
G02*
X150887750Y-103309000I243750J0D01*
G01*
X151375250Y-103309000D01*
G75*
G02*
X151619000Y-103552750I0J-243750D01*
G01*
X151619000Y-104465250D01*
G75*
G02*
X151375250Y-104709000I-243750J0D01*
G01*
X150887750Y-104709000D01*
G75*
G02*
X150644000Y-104465250I0J243750D01*
G01*
G37*
G04 #@! TD.AperFunction*
G04 #@! TA.AperFunction,SMDPad,CuDef*
G36*
G01*
X150499750Y-105886000D02*
X151412250Y-105886000D01*
G75*
G02*
X151656000Y-106129750I0J-243750D01*
G01*
X151656000Y-106617250D01*
G75*
G02*
X151412250Y-106861000I-243750J0D01*
G01*
X150499750Y-106861000D01*
G75*
G02*
X150256000Y-106617250I0J243750D01*
G01*
X150256000Y-106129750D01*
G75*
G02*
X150499750Y-105886000I243750J0D01*
G01*
G37*
G04 #@! TD.AperFunction*
G04 #@! TA.AperFunction,SMDPad,CuDef*
G36*
G01*
X150499750Y-107761000D02*
X151412250Y-107761000D01*
G75*
G02*
X151656000Y-108004750I0J-243750D01*
G01*
X151656000Y-108492250D01*
G75*
G02*
X151412250Y-108736000I-243750J0D01*
G01*
X150499750Y-108736000D01*
G75*
G02*
X150256000Y-108492250I0J243750D01*
G01*
X150256000Y-108004750D01*
G75*
G02*
X150499750Y-107761000I243750J0D01*
G01*
G37*
G04 #@! TD.AperFunction*
G04 #@! TA.AperFunction,SMDPad,CuDef*
G36*
G01*
X148340750Y-105886000D02*
X149253250Y-105886000D01*
G75*
G02*
X149497000Y-106129750I0J-243750D01*
G01*
X149497000Y-106617250D01*
G75*
G02*
X149253250Y-106861000I-243750J0D01*
G01*
X148340750Y-106861000D01*
G75*
G02*
X148097000Y-106617250I0J243750D01*
G01*
X148097000Y-106129750D01*
G75*
G02*
X148340750Y-105886000I243750J0D01*
G01*
G37*
G04 #@! TD.AperFunction*
G04 #@! TA.AperFunction,SMDPad,CuDef*
G36*
G01*
X148340750Y-107761000D02*
X149253250Y-107761000D01*
G75*
G02*
X149497000Y-108004750I0J-243750D01*
G01*
X149497000Y-108492250D01*
G75*
G02*
X149253250Y-108736000I-243750J0D01*
G01*
X148340750Y-108736000D01*
G75*
G02*
X148097000Y-108492250I0J243750D01*
G01*
X148097000Y-108004750D01*
G75*
G02*
X148340750Y-107761000I243750J0D01*
G01*
G37*
G04 #@! TD.AperFunction*
G04 #@! TA.AperFunction,SMDPad,CuDef*
G36*
G01*
X128092750Y-108510000D02*
X127180250Y-108510000D01*
G75*
G02*
X126936500Y-108266250I0J243750D01*
G01*
X126936500Y-107778750D01*
G75*
G02*
X127180250Y-107535000I243750J0D01*
G01*
X128092750Y-107535000D01*
G75*
G02*
X128336500Y-107778750I0J-243750D01*
G01*
X128336500Y-108266250D01*
G75*
G02*
X128092750Y-108510000I-243750J0D01*
G01*
G37*
G04 #@! TD.AperFunction*
G04 #@! TA.AperFunction,SMDPad,CuDef*
G36*
G01*
X128092750Y-106635000D02*
X127180250Y-106635000D01*
G75*
G02*
X126936500Y-106391250I0J243750D01*
G01*
X126936500Y-105903750D01*
G75*
G02*
X127180250Y-105660000I243750J0D01*
G01*
X128092750Y-105660000D01*
G75*
G02*
X128336500Y-105903750I0J-243750D01*
G01*
X128336500Y-106391250D01*
G75*
G02*
X128092750Y-106635000I-243750J0D01*
G01*
G37*
G04 #@! TD.AperFunction*
G04 #@! TA.AperFunction,SMDPad,CuDef*
G36*
G01*
X129513500Y-108811250D02*
X129513500Y-107898750D01*
G75*
G02*
X129757250Y-107655000I243750J0D01*
G01*
X130244750Y-107655000D01*
G75*
G02*
X130488500Y-107898750I0J-243750D01*
G01*
X130488500Y-108811250D01*
G75*
G02*
X130244750Y-109055000I-243750J0D01*
G01*
X129757250Y-109055000D01*
G75*
G02*
X129513500Y-108811250I0J243750D01*
G01*
G37*
G04 #@! TD.AperFunction*
G04 #@! TA.AperFunction,SMDPad,CuDef*
G36*
G01*
X131388500Y-108811250D02*
X131388500Y-107898750D01*
G75*
G02*
X131632250Y-107655000I243750J0D01*
G01*
X132119750Y-107655000D01*
G75*
G02*
X132363500Y-107898750I0J-243750D01*
G01*
X132363500Y-108811250D01*
G75*
G02*
X132119750Y-109055000I-243750J0D01*
G01*
X131632250Y-109055000D01*
G75*
G02*
X131388500Y-108811250I0J243750D01*
G01*
G37*
G04 #@! TD.AperFunction*
D10*
X125588500Y-107781000D03*
X125588500Y-105881000D03*
X123588500Y-106831000D03*
G04 #@! TA.AperFunction,SMDPad,CuDef*
G36*
G01*
X129513500Y-106271250D02*
X129513500Y-105358750D01*
G75*
G02*
X129757250Y-105115000I243750J0D01*
G01*
X130244750Y-105115000D01*
G75*
G02*
X130488500Y-105358750I0J-243750D01*
G01*
X130488500Y-106271250D01*
G75*
G02*
X130244750Y-106515000I-243750J0D01*
G01*
X129757250Y-106515000D01*
G75*
G02*
X129513500Y-106271250I0J243750D01*
G01*
G37*
G04 #@! TD.AperFunction*
G04 #@! TA.AperFunction,SMDPad,CuDef*
G36*
G01*
X131388500Y-106271250D02*
X131388500Y-105358750D01*
G75*
G02*
X131632250Y-105115000I243750J0D01*
G01*
X132119750Y-105115000D01*
G75*
G02*
X132363500Y-105358750I0J-243750D01*
G01*
X132363500Y-106271250D01*
G75*
G02*
X132119750Y-106515000I-243750J0D01*
G01*
X131632250Y-106515000D01*
G75*
G02*
X131388500Y-106271250I0J243750D01*
G01*
G37*
G04 #@! TD.AperFunction*
G04 #@! TA.AperFunction,SMDPad,CuDef*
G36*
G01*
X141045000Y-104650000D02*
X140745000Y-104650000D01*
G75*
G02*
X140595000Y-104500000I0J150000D01*
G01*
X140595000Y-102850000D01*
G75*
G02*
X140745000Y-102700000I150000J0D01*
G01*
X141045000Y-102700000D01*
G75*
G02*
X141195000Y-102850000I0J-150000D01*
G01*
X141195000Y-104500000D01*
G75*
G02*
X141045000Y-104650000I-150000J0D01*
G01*
G37*
G04 #@! TD.AperFunction*
G04 #@! TA.AperFunction,SMDPad,CuDef*
G36*
G01*
X142315000Y-104650000D02*
X142015000Y-104650000D01*
G75*
G02*
X141865000Y-104500000I0J150000D01*
G01*
X141865000Y-102850000D01*
G75*
G02*
X142015000Y-102700000I150000J0D01*
G01*
X142315000Y-102700000D01*
G75*
G02*
X142465000Y-102850000I0J-150000D01*
G01*
X142465000Y-104500000D01*
G75*
G02*
X142315000Y-104650000I-150000J0D01*
G01*
G37*
G04 #@! TD.AperFunction*
G04 #@! TA.AperFunction,SMDPad,CuDef*
G36*
G01*
X143585000Y-104650000D02*
X143285000Y-104650000D01*
G75*
G02*
X143135000Y-104500000I0J150000D01*
G01*
X143135000Y-102850000D01*
G75*
G02*
X143285000Y-102700000I150000J0D01*
G01*
X143585000Y-102700000D01*
G75*
G02*
X143735000Y-102850000I0J-150000D01*
G01*
X143735000Y-104500000D01*
G75*
G02*
X143585000Y-104650000I-150000J0D01*
G01*
G37*
G04 #@! TD.AperFunction*
G04 #@! TA.AperFunction,SMDPad,CuDef*
G36*
G01*
X144855000Y-104650000D02*
X144555000Y-104650000D01*
G75*
G02*
X144405000Y-104500000I0J150000D01*
G01*
X144405000Y-102850000D01*
G75*
G02*
X144555000Y-102700000I150000J0D01*
G01*
X144855000Y-102700000D01*
G75*
G02*
X145005000Y-102850000I0J-150000D01*
G01*
X145005000Y-104500000D01*
G75*
G02*
X144855000Y-104650000I-150000J0D01*
G01*
G37*
G04 #@! TD.AperFunction*
G04 #@! TA.AperFunction,SMDPad,CuDef*
G36*
G01*
X144855000Y-99700000D02*
X144555000Y-99700000D01*
G75*
G02*
X144405000Y-99550000I0J150000D01*
G01*
X144405000Y-97900000D01*
G75*
G02*
X144555000Y-97750000I150000J0D01*
G01*
X144855000Y-97750000D01*
G75*
G02*
X145005000Y-97900000I0J-150000D01*
G01*
X145005000Y-99550000D01*
G75*
G02*
X144855000Y-99700000I-150000J0D01*
G01*
G37*
G04 #@! TD.AperFunction*
G04 #@! TA.AperFunction,SMDPad,CuDef*
G36*
G01*
X143585000Y-99700000D02*
X143285000Y-99700000D01*
G75*
G02*
X143135000Y-99550000I0J150000D01*
G01*
X143135000Y-97900000D01*
G75*
G02*
X143285000Y-97750000I150000J0D01*
G01*
X143585000Y-97750000D01*
G75*
G02*
X143735000Y-97900000I0J-150000D01*
G01*
X143735000Y-99550000D01*
G75*
G02*
X143585000Y-99700000I-150000J0D01*
G01*
G37*
G04 #@! TD.AperFunction*
G04 #@! TA.AperFunction,SMDPad,CuDef*
G36*
G01*
X142315000Y-99700000D02*
X142015000Y-99700000D01*
G75*
G02*
X141865000Y-99550000I0J150000D01*
G01*
X141865000Y-97900000D01*
G75*
G02*
X142015000Y-97750000I150000J0D01*
G01*
X142315000Y-97750000D01*
G75*
G02*
X142465000Y-97900000I0J-150000D01*
G01*
X142465000Y-99550000D01*
G75*
G02*
X142315000Y-99700000I-150000J0D01*
G01*
G37*
G04 #@! TD.AperFunction*
G04 #@! TA.AperFunction,SMDPad,CuDef*
G36*
G01*
X141045000Y-99700000D02*
X140745000Y-99700000D01*
G75*
G02*
X140595000Y-99550000I0J150000D01*
G01*
X140595000Y-97900000D01*
G75*
G02*
X140745000Y-97750000I150000J0D01*
G01*
X141045000Y-97750000D01*
G75*
G02*
X141195000Y-97900000I0J-150000D01*
G01*
X141195000Y-99550000D01*
G75*
G02*
X141045000Y-99700000I-150000J0D01*
G01*
G37*
G04 #@! TD.AperFunction*
D11*
X158254000Y-106534000D03*
X155754000Y-109034000D03*
X153254000Y-106534000D03*
X158254000Y-98406000D03*
X155754000Y-100906000D03*
X153254000Y-98406000D03*
D12*
X136308000Y-100138000D03*
X136308000Y-102038000D03*
X134108000Y-102038000D03*
X134108000Y-101088000D03*
X134108000Y-100138000D03*
D13*
X174550000Y-92612000D03*
X175500000Y-94612000D03*
X173600000Y-94612000D03*
G04 #@! TA.AperFunction,SMDPad,CuDef*
G36*
G01*
X172915250Y-99949000D02*
X173827750Y-99949000D01*
G75*
G02*
X174071500Y-100192750I0J-243750D01*
G01*
X174071500Y-100680250D01*
G75*
G02*
X173827750Y-100924000I-243750J0D01*
G01*
X172915250Y-100924000D01*
G75*
G02*
X172671500Y-100680250I0J243750D01*
G01*
X172671500Y-100192750D01*
G75*
G02*
X172915250Y-99949000I243750J0D01*
G01*
G37*
G04 #@! TD.AperFunction*
G04 #@! TA.AperFunction,SMDPad,CuDef*
G36*
G01*
X172915250Y-98074000D02*
X173827750Y-98074000D01*
G75*
G02*
X174071500Y-98317750I0J-243750D01*
G01*
X174071500Y-98805250D01*
G75*
G02*
X173827750Y-99049000I-243750J0D01*
G01*
X172915250Y-99049000D01*
G75*
G02*
X172671500Y-98805250I0J243750D01*
G01*
X172671500Y-98317750D01*
G75*
G02*
X172915250Y-98074000I243750J0D01*
G01*
G37*
G04 #@! TD.AperFunction*
G04 #@! TA.AperFunction,SMDPad,CuDef*
G36*
G01*
X150499750Y-99633000D02*
X151412250Y-99633000D01*
G75*
G02*
X151656000Y-99876750I0J-243750D01*
G01*
X151656000Y-100364250D01*
G75*
G02*
X151412250Y-100608000I-243750J0D01*
G01*
X150499750Y-100608000D01*
G75*
G02*
X150256000Y-100364250I0J243750D01*
G01*
X150256000Y-99876750D01*
G75*
G02*
X150499750Y-99633000I243750J0D01*
G01*
G37*
G04 #@! TD.AperFunction*
G04 #@! TA.AperFunction,SMDPad,CuDef*
G36*
G01*
X150499750Y-97758000D02*
X151412250Y-97758000D01*
G75*
G02*
X151656000Y-98001750I0J-243750D01*
G01*
X151656000Y-98489250D01*
G75*
G02*
X151412250Y-98733000I-243750J0D01*
G01*
X150499750Y-98733000D01*
G75*
G02*
X150256000Y-98489250I0J243750D01*
G01*
X150256000Y-98001750D01*
G75*
G02*
X150499750Y-97758000I243750J0D01*
G01*
G37*
G04 #@! TD.AperFunction*
G04 #@! TA.AperFunction,SMDPad,CuDef*
G36*
G01*
X150644000Y-96337250D02*
X150644000Y-95424750D01*
G75*
G02*
X150887750Y-95181000I243750J0D01*
G01*
X151375250Y-95181000D01*
G75*
G02*
X151619000Y-95424750I0J-243750D01*
G01*
X151619000Y-96337250D01*
G75*
G02*
X151375250Y-96581000I-243750J0D01*
G01*
X150887750Y-96581000D01*
G75*
G02*
X150644000Y-96337250I0J243750D01*
G01*
G37*
G04 #@! TD.AperFunction*
G04 #@! TA.AperFunction,SMDPad,CuDef*
G36*
G01*
X148769000Y-96337250D02*
X148769000Y-95424750D01*
G75*
G02*
X149012750Y-95181000I243750J0D01*
G01*
X149500250Y-95181000D01*
G75*
G02*
X149744000Y-95424750I0J-243750D01*
G01*
X149744000Y-96337250D01*
G75*
G02*
X149500250Y-96581000I-243750J0D01*
G01*
X149012750Y-96581000D01*
G75*
G02*
X148769000Y-96337250I0J243750D01*
G01*
G37*
G04 #@! TD.AperFunction*
D14*
X138736000Y-107900000D03*
X141276000Y-107900000D03*
X143816000Y-107900000D03*
D15*
X146356000Y-107900000D03*
G04 #@! TA.AperFunction,SMDPad,CuDef*
G36*
G01*
X175028000Y-97034250D02*
X175028000Y-96121750D01*
G75*
G02*
X175271750Y-95878000I243750J0D01*
G01*
X175759250Y-95878000D01*
G75*
G02*
X176003000Y-96121750I0J-243750D01*
G01*
X176003000Y-97034250D01*
G75*
G02*
X175759250Y-97278000I-243750J0D01*
G01*
X175271750Y-97278000D01*
G75*
G02*
X175028000Y-97034250I0J243750D01*
G01*
G37*
G04 #@! TD.AperFunction*
G04 #@! TA.AperFunction,SMDPad,CuDef*
G36*
G01*
X173153000Y-97034250D02*
X173153000Y-96121750D01*
G75*
G02*
X173396750Y-95878000I243750J0D01*
G01*
X173884250Y-95878000D01*
G75*
G02*
X174128000Y-96121750I0J-243750D01*
G01*
X174128000Y-97034250D01*
G75*
G02*
X173884250Y-97278000I-243750J0D01*
G01*
X173396750Y-97278000D01*
G75*
G02*
X173153000Y-97034250I0J243750D01*
G01*
G37*
G04 #@! TD.AperFunction*
G04 #@! TA.AperFunction,SMDPad,CuDef*
G36*
G01*
X135630000Y-104704250D02*
X135630000Y-103791750D01*
G75*
G02*
X135873750Y-103548000I243750J0D01*
G01*
X136361250Y-103548000D01*
G75*
G02*
X136605000Y-103791750I0J-243750D01*
G01*
X136605000Y-104704250D01*
G75*
G02*
X136361250Y-104948000I-243750J0D01*
G01*
X135873750Y-104948000D01*
G75*
G02*
X135630000Y-104704250I0J243750D01*
G01*
G37*
G04 #@! TD.AperFunction*
G04 #@! TA.AperFunction,SMDPad,CuDef*
G36*
G01*
X133755000Y-104704250D02*
X133755000Y-103791750D01*
G75*
G02*
X133998750Y-103548000I243750J0D01*
G01*
X134486250Y-103548000D01*
G75*
G02*
X134730000Y-103791750I0J-243750D01*
G01*
X134730000Y-104704250D01*
G75*
G02*
X134486250Y-104948000I-243750J0D01*
G01*
X133998750Y-104948000D01*
G75*
G02*
X133755000Y-104704250I0J243750D01*
G01*
G37*
G04 #@! TD.AperFunction*
G04 #@! TA.AperFunction,SMDPad,CuDef*
G36*
G01*
X138643750Y-99110000D02*
X139556250Y-99110000D01*
G75*
G02*
X139800000Y-99353750I0J-243750D01*
G01*
X139800000Y-99841250D01*
G75*
G02*
X139556250Y-100085000I-243750J0D01*
G01*
X138643750Y-100085000D01*
G75*
G02*
X138400000Y-99841250I0J243750D01*
G01*
X138400000Y-99353750D01*
G75*
G02*
X138643750Y-99110000I243750J0D01*
G01*
G37*
G04 #@! TD.AperFunction*
G04 #@! TA.AperFunction,SMDPad,CuDef*
G36*
G01*
X138643750Y-97235000D02*
X139556250Y-97235000D01*
G75*
G02*
X139800000Y-97478750I0J-243750D01*
G01*
X139800000Y-97966250D01*
G75*
G02*
X139556250Y-98210000I-243750J0D01*
G01*
X138643750Y-98210000D01*
G75*
G02*
X138400000Y-97966250I0J243750D01*
G01*
X138400000Y-97478750D01*
G75*
G02*
X138643750Y-97235000I243750J0D01*
G01*
G37*
G04 #@! TD.AperFunction*
G04 #@! TA.AperFunction,SMDPad,CuDef*
G36*
G01*
X175074250Y-99949000D02*
X175986750Y-99949000D01*
G75*
G02*
X176230500Y-100192750I0J-243750D01*
G01*
X176230500Y-100680250D01*
G75*
G02*
X175986750Y-100924000I-243750J0D01*
G01*
X175074250Y-100924000D01*
G75*
G02*
X174830500Y-100680250I0J243750D01*
G01*
X174830500Y-100192750D01*
G75*
G02*
X175074250Y-99949000I243750J0D01*
G01*
G37*
G04 #@! TD.AperFunction*
G04 #@! TA.AperFunction,SMDPad,CuDef*
G36*
G01*
X175074250Y-98074000D02*
X175986750Y-98074000D01*
G75*
G02*
X176230500Y-98317750I0J-243750D01*
G01*
X176230500Y-98805250D01*
G75*
G02*
X175986750Y-99049000I-243750J0D01*
G01*
X175074250Y-99049000D01*
G75*
G02*
X174830500Y-98805250I0J243750D01*
G01*
X174830500Y-98317750D01*
G75*
G02*
X175074250Y-98074000I243750J0D01*
G01*
G37*
G04 #@! TD.AperFunction*
G04 #@! TA.AperFunction,SMDPad,CuDef*
G36*
G01*
X134758000Y-97329750D02*
X134758000Y-98242250D01*
G75*
G02*
X134514250Y-98486000I-243750J0D01*
G01*
X134026750Y-98486000D01*
G75*
G02*
X133783000Y-98242250I0J243750D01*
G01*
X133783000Y-97329750D01*
G75*
G02*
X134026750Y-97086000I243750J0D01*
G01*
X134514250Y-97086000D01*
G75*
G02*
X134758000Y-97329750I0J-243750D01*
G01*
G37*
G04 #@! TD.AperFunction*
G04 #@! TA.AperFunction,SMDPad,CuDef*
G36*
G01*
X136633000Y-97329750D02*
X136633000Y-98242250D01*
G75*
G02*
X136389250Y-98486000I-243750J0D01*
G01*
X135901750Y-98486000D01*
G75*
G02*
X135658000Y-98242250I0J243750D01*
G01*
X135658000Y-97329750D01*
G75*
G02*
X135901750Y-97086000I243750J0D01*
G01*
X136389250Y-97086000D01*
G75*
G02*
X136633000Y-97329750I0J-243750D01*
G01*
G37*
G04 #@! TD.AperFunction*
G04 #@! TA.AperFunction,SMDPad,CuDef*
G36*
G01*
X135630000Y-107142650D02*
X135630000Y-106230150D01*
G75*
G02*
X135873750Y-105986400I243750J0D01*
G01*
X136361250Y-105986400D01*
G75*
G02*
X136605000Y-106230150I0J-243750D01*
G01*
X136605000Y-107142650D01*
G75*
G02*
X136361250Y-107386400I-243750J0D01*
G01*
X135873750Y-107386400D01*
G75*
G02*
X135630000Y-107142650I0J243750D01*
G01*
G37*
G04 #@! TD.AperFunction*
G04 #@! TA.AperFunction,SMDPad,CuDef*
G36*
G01*
X133755000Y-107142650D02*
X133755000Y-106230150D01*
G75*
G02*
X133998750Y-105986400I243750J0D01*
G01*
X134486250Y-105986400D01*
G75*
G02*
X134730000Y-106230150I0J-243750D01*
G01*
X134730000Y-107142650D01*
G75*
G02*
X134486250Y-107386400I-243750J0D01*
G01*
X133998750Y-107386400D01*
G75*
G02*
X133755000Y-107142650I0J243750D01*
G01*
G37*
G04 #@! TD.AperFunction*
G04 #@! TA.AperFunction,SMDPad,CuDef*
G36*
G01*
X148340750Y-99633000D02*
X149253250Y-99633000D01*
G75*
G02*
X149497000Y-99876750I0J-243750D01*
G01*
X149497000Y-100364250D01*
G75*
G02*
X149253250Y-100608000I-243750J0D01*
G01*
X148340750Y-100608000D01*
G75*
G02*
X148097000Y-100364250I0J243750D01*
G01*
X148097000Y-99876750D01*
G75*
G02*
X148340750Y-99633000I243750J0D01*
G01*
G37*
G04 #@! TD.AperFunction*
G04 #@! TA.AperFunction,SMDPad,CuDef*
G36*
G01*
X148340750Y-97758000D02*
X149253250Y-97758000D01*
G75*
G02*
X149497000Y-98001750I0J-243750D01*
G01*
X149497000Y-98489250D01*
G75*
G02*
X149253250Y-98733000I-243750J0D01*
G01*
X148340750Y-98733000D01*
G75*
G02*
X148097000Y-98489250I0J243750D01*
G01*
X148097000Y-98001750D01*
G75*
G02*
X148340750Y-97758000I243750J0D01*
G01*
G37*
G04 #@! TD.AperFunction*
D16*
X149876500Y-101088000D03*
X124334500Y-104545000D03*
X176836000Y-93358000D03*
X144098000Y-101342000D03*
X139272000Y-96008000D03*
X133176000Y-97786000D03*
X132668000Y-101088000D03*
X149876500Y-109216000D03*
X137466000Y-105518000D03*
X130953500Y-107087000D03*
X174500000Y-102000000D03*
X139335500Y-105880500D03*
X142129500Y-100546500D03*
X171500000Y-103247000D03*
X139653000Y-102070500D03*
X126254500Y-104356500D03*
X171500000Y-93500000D03*
X145250000Y-96685800D03*
D17*
X148909000Y-100120500D02*
X149876500Y-101088000D01*
X148797000Y-100120500D02*
X148909000Y-100120500D01*
X150844000Y-100120500D02*
X149876500Y-101088000D01*
X150956000Y-100120500D02*
X150844000Y-100120500D01*
X123588500Y-106831000D02*
X123588500Y-105291000D01*
X123588500Y-105291000D02*
X124334500Y-104545000D01*
X174550000Y-92612000D02*
X176090000Y-92612000D01*
X176090000Y-92612000D02*
X176836000Y-93358000D01*
X144705000Y-103675000D02*
X144705000Y-101949000D01*
X144705000Y-101949000D02*
X144098000Y-101342000D01*
X139100000Y-97722500D02*
X139100000Y-96180000D01*
X139100000Y-96180000D02*
X139272000Y-96008000D01*
X134270500Y-97786000D02*
X133176000Y-97786000D01*
X134108000Y-101088000D02*
X132668000Y-101088000D01*
X136117500Y-106280000D02*
X136493000Y-106280000D01*
X150956000Y-108248500D02*
X150844000Y-108248500D01*
X150844000Y-108248500D02*
X149876500Y-109216000D01*
X148909000Y-108248500D02*
X149876500Y-109216000D01*
X148797000Y-108248500D02*
X148909000Y-108248500D01*
X136117500Y-104248000D02*
X136196000Y-104248000D01*
X136297600Y-106686400D02*
X137466000Y-105518000D01*
X136196000Y-104248000D02*
X137466000Y-105518000D01*
X136117500Y-106686400D02*
X136297600Y-106686400D01*
X131876000Y-105815000D02*
X131876000Y-106164500D01*
X131876000Y-106164500D02*
X130953500Y-107087000D01*
X175530500Y-100436500D02*
X175530500Y-100969500D01*
X175530500Y-100969500D02*
X174500000Y-102000000D01*
D18*
X145158500Y-106373500D02*
X148797000Y-106373500D01*
X143435000Y-103675000D02*
X143435000Y-104650000D01*
X143435000Y-104650000D02*
X145158500Y-106373500D01*
X150956000Y-106373500D02*
X148797000Y-106373500D01*
X148797000Y-104468500D02*
X149256500Y-104009000D01*
X148797000Y-106373500D02*
X148797000Y-104468500D01*
X150956000Y-98245500D02*
X148797000Y-98245500D01*
X148797000Y-96340500D02*
X149256500Y-95881000D01*
X148797000Y-98245500D02*
X148797000Y-96340500D01*
X148317500Y-98725000D02*
X148797000Y-98245500D01*
X144705000Y-98725000D02*
X148317500Y-98725000D01*
D17*
X138736000Y-107900000D02*
X134908000Y-107900000D01*
X134242500Y-107234500D02*
X134242500Y-106280000D01*
X134908000Y-107900000D02*
X134242500Y-107234500D01*
X134242500Y-106280000D02*
X134242500Y-104248000D01*
X134108000Y-104113500D02*
X134242500Y-104248000D01*
X134108000Y-102038000D02*
X134108000Y-104113500D01*
X135095201Y-100397239D02*
X134835962Y-100138000D01*
X134835962Y-100138000D02*
X134108000Y-100138000D01*
X134835962Y-102038000D02*
X135095201Y-101778761D01*
X135095201Y-101778761D02*
X135095201Y-100397239D01*
X134108000Y-102038000D02*
X134835962Y-102038000D01*
X127222000Y-106147500D02*
X125588500Y-107781000D01*
X127636500Y-106147500D02*
X127222000Y-106147500D01*
X139972500Y-98725000D02*
X139100000Y-99597500D01*
X140895000Y-98725000D02*
X139972500Y-98725000D01*
X136308000Y-97948500D02*
X136145500Y-97786000D01*
X136308000Y-100138000D02*
X136308000Y-97948500D01*
X129668500Y-106147500D02*
X130001000Y-105815000D01*
X127636500Y-106147500D02*
X129668500Y-106147500D01*
X175515500Y-96527500D02*
X173600000Y-94612000D01*
X175515500Y-96578000D02*
X175515500Y-96527500D01*
D18*
X141276000Y-107900000D02*
X141276000Y-107466000D01*
X141276000Y-107900000D02*
X139335500Y-105959500D01*
X139335500Y-105959500D02*
X139335500Y-105880500D01*
X142129500Y-98760500D02*
X142165000Y-98725000D01*
X142129500Y-100546500D02*
X142129500Y-98760500D01*
X173371500Y-101375500D02*
X171500000Y-103247000D01*
X173371500Y-100436500D02*
X173371500Y-101375500D01*
X143816000Y-107900000D02*
X141992000Y-109724000D01*
X133689500Y-109724000D02*
X132320500Y-108355000D01*
X141992000Y-109724000D02*
X133689500Y-109724000D01*
X140895000Y-104979000D02*
X140895000Y-103675000D01*
X143816000Y-107900000D02*
X140895000Y-104979000D01*
X127969000Y-108355000D02*
X127636500Y-108022500D01*
X130001000Y-108355000D02*
X127969000Y-108355000D01*
X173371500Y-96847000D02*
X173640500Y-96578000D01*
X173371500Y-98561500D02*
X173371500Y-96847000D01*
X153254000Y-106131500D02*
X153254000Y-106534000D01*
X151131500Y-104009000D02*
X153254000Y-106131500D01*
X154015999Y-107295999D02*
X155754000Y-109034000D01*
X153254000Y-106534000D02*
X154015999Y-107295999D01*
X154992001Y-100144001D02*
X153254000Y-98406000D01*
X155754000Y-100906000D02*
X154992001Y-100144001D01*
X153254000Y-98003500D02*
X153254000Y-98406000D01*
X151131500Y-95881000D02*
X153254000Y-98003500D01*
X141535500Y-102070500D02*
X139653000Y-102070500D01*
X142165000Y-103675000D02*
X142165000Y-102700000D01*
X142165000Y-102700000D02*
X141535500Y-102070500D01*
X125588500Y-105022500D02*
X126254500Y-104356500D01*
X125588500Y-105881000D02*
X125588500Y-105022500D01*
X175092000Y-93500000D02*
X171500000Y-93500000D01*
X175500000Y-94612000D02*
X175500000Y-93908000D01*
X175500000Y-93908000D02*
X175092000Y-93500000D01*
X143435000Y-97065000D02*
X143435000Y-98725000D01*
X143814200Y-96685800D02*
X143435000Y-97065000D01*
X145250000Y-96685800D02*
X143814200Y-96685800D01*
X173698815Y-91710815D02*
X173619463Y-91807506D01*
X173560498Y-91917820D01*
X173524188Y-92037518D01*
X173511928Y-92162000D01*
X173511928Y-92738000D01*
X172343132Y-92738000D01*
X172223520Y-92618388D01*
X172037624Y-92494176D01*
X171831067Y-92408617D01*
X171611788Y-92365000D01*
X171388212Y-92365000D01*
X171168933Y-92408617D01*
X170962376Y-92494176D01*
X170776480Y-92618388D01*
X170618388Y-92776480D01*
X170494176Y-92962376D01*
X170408617Y-93168933D01*
X170365000Y-93388212D01*
X170365000Y-93611788D01*
X170408617Y-93831067D01*
X170494176Y-94037624D01*
X170618388Y-94223520D01*
X170776480Y-94381612D01*
X170962376Y-94505824D01*
X171168933Y-94591383D01*
X171388212Y-94635000D01*
X171611788Y-94635000D01*
X171831067Y-94591383D01*
X172037624Y-94505824D01*
X172223520Y-94381612D01*
X172343132Y-94262000D01*
X172563798Y-94262000D01*
X172565000Y-94326250D01*
X172723750Y-94485000D01*
X173473000Y-94485000D01*
X173473000Y-94465000D01*
X173727000Y-94465000D01*
X173727000Y-94485000D01*
X173747000Y-94485000D01*
X173747000Y-94739000D01*
X173727000Y-94739000D01*
X173727000Y-94759000D01*
X173473000Y-94759000D01*
X173473000Y-94739000D01*
X172723750Y-94739000D01*
X172565000Y-94897750D01*
X172561928Y-95062000D01*
X172574188Y-95186482D01*
X172610498Y-95306180D01*
X172669463Y-95416494D01*
X172748815Y-95513185D01*
X172756046Y-95519120D01*
X172663542Y-95631836D01*
X172582053Y-95784291D01*
X172531872Y-95949715D01*
X172514928Y-96121750D01*
X172514928Y-97034250D01*
X172531872Y-97206285D01*
X172582053Y-97371709D01*
X172609501Y-97423060D01*
X172609501Y-97493434D01*
X172577791Y-97503053D01*
X172425336Y-97584542D01*
X172291708Y-97694208D01*
X172182042Y-97827836D01*
X172100553Y-97980291D01*
X172050372Y-98145715D01*
X172033428Y-98317750D01*
X172033428Y-98805250D01*
X172050372Y-98977285D01*
X172100553Y-99142709D01*
X172182042Y-99295164D01*
X172291708Y-99428792D01*
X172377256Y-99499000D01*
X172291708Y-99569208D01*
X172182042Y-99702836D01*
X172100553Y-99855291D01*
X172050372Y-100020715D01*
X172033428Y-100192750D01*
X172033428Y-100680250D01*
X172050372Y-100852285D01*
X172100553Y-101017709D01*
X172182042Y-101170164D01*
X172291708Y-101303792D01*
X172332281Y-101337089D01*
X171557370Y-102112000D01*
X171388212Y-102112000D01*
X171168933Y-102155617D01*
X170962376Y-102241176D01*
X170776480Y-102365388D01*
X170618388Y-102523480D01*
X170494176Y-102709376D01*
X170408617Y-102915933D01*
X170365000Y-103135212D01*
X170365000Y-103358788D01*
X170401045Y-103540000D01*
X162115123Y-103540000D01*
X162084424Y-103543024D01*
X162075180Y-103542959D01*
X162065315Y-103543926D01*
X161774169Y-103574526D01*
X161711138Y-103587464D01*
X161647920Y-103599524D01*
X161638430Y-103602389D01*
X161358774Y-103688957D01*
X161299479Y-103713883D01*
X161239785Y-103738001D01*
X161231033Y-103742655D01*
X160973517Y-103881894D01*
X160920158Y-103917885D01*
X160866323Y-103953114D01*
X160858640Y-103959379D01*
X160633073Y-104145984D01*
X160587735Y-104191640D01*
X160541753Y-104236669D01*
X160535434Y-104244308D01*
X160350408Y-104471172D01*
X160314835Y-104524714D01*
X160278440Y-104577867D01*
X160273725Y-104586588D01*
X160136288Y-104845069D01*
X160111780Y-104904530D01*
X160086416Y-104963710D01*
X160083484Y-104973180D01*
X159998870Y-105253435D01*
X159986377Y-105316532D01*
X159972991Y-105379506D01*
X159971955Y-105389365D01*
X159943388Y-105680717D01*
X159943388Y-105680733D01*
X159940001Y-105715123D01*
X159940000Y-109465271D01*
X159921614Y-109652784D01*
X159877243Y-109799748D01*
X159805171Y-109935297D01*
X159708148Y-110054258D01*
X159589856Y-110152118D01*
X159454819Y-110225132D01*
X159308167Y-110270529D01*
X159122908Y-110290000D01*
X156372283Y-110290000D01*
X156415727Y-110272005D01*
X156644535Y-110119120D01*
X156839120Y-109924535D01*
X156992005Y-109695727D01*
X157097314Y-109441490D01*
X157151000Y-109171592D01*
X157151000Y-108896408D01*
X157097314Y-108626510D01*
X156992005Y-108372273D01*
X156839120Y-108143465D01*
X156644535Y-107948880D01*
X156415727Y-107795995D01*
X156161490Y-107690686D01*
X155891592Y-107637000D01*
X155616408Y-107637000D01*
X155464789Y-107667159D01*
X155297195Y-107499565D01*
X157468040Y-107499565D01*
X157535020Y-107739656D01*
X157784048Y-107856756D01*
X158051135Y-107923023D01*
X158326017Y-107935910D01*
X158598133Y-107894922D01*
X158857023Y-107801636D01*
X158972980Y-107739656D01*
X159039960Y-107499565D01*
X158254000Y-106713605D01*
X157468040Y-107499565D01*
X155297195Y-107499565D01*
X154620841Y-106823211D01*
X154651000Y-106671592D01*
X154651000Y-106606017D01*
X156852090Y-106606017D01*
X156893078Y-106878133D01*
X156986364Y-107137023D01*
X157048344Y-107252980D01*
X157288435Y-107319960D01*
X158074395Y-106534000D01*
X158433605Y-106534000D01*
X159219565Y-107319960D01*
X159459656Y-107252980D01*
X159576756Y-107003952D01*
X159643023Y-106736865D01*
X159655910Y-106461983D01*
X159614922Y-106189867D01*
X159521636Y-105930977D01*
X159459656Y-105815020D01*
X159219565Y-105748040D01*
X158433605Y-106534000D01*
X158074395Y-106534000D01*
X157288435Y-105748040D01*
X157048344Y-105815020D01*
X156931244Y-106064048D01*
X156864977Y-106331135D01*
X156852090Y-106606017D01*
X154651000Y-106606017D01*
X154651000Y-106396408D01*
X154597314Y-106126510D01*
X154492005Y-105872273D01*
X154339120Y-105643465D01*
X154264090Y-105568435D01*
X157468040Y-105568435D01*
X158254000Y-106354395D01*
X159039960Y-105568435D01*
X158972980Y-105328344D01*
X158723952Y-105211244D01*
X158456865Y-105144977D01*
X158181983Y-105132090D01*
X157909867Y-105173078D01*
X157650977Y-105266364D01*
X157535020Y-105328344D01*
X157468040Y-105568435D01*
X154264090Y-105568435D01*
X154144535Y-105448880D01*
X153915727Y-105295995D01*
X153661490Y-105190686D01*
X153391592Y-105137000D01*
X153337131Y-105137000D01*
X152257072Y-104056942D01*
X152257072Y-103552750D01*
X152240128Y-103380715D01*
X152189947Y-103215291D01*
X152108458Y-103062836D01*
X151998792Y-102929208D01*
X151865164Y-102819542D01*
X151712709Y-102738053D01*
X151547285Y-102687872D01*
X151375250Y-102670928D01*
X150887750Y-102670928D01*
X150715715Y-102687872D01*
X150550291Y-102738053D01*
X150397836Y-102819542D01*
X150264208Y-102929208D01*
X150194000Y-103014756D01*
X150123792Y-102929208D01*
X149990164Y-102819542D01*
X149837709Y-102738053D01*
X149672285Y-102687872D01*
X149500250Y-102670928D01*
X149012750Y-102670928D01*
X148840715Y-102687872D01*
X148675291Y-102738053D01*
X148522836Y-102819542D01*
X148389208Y-102929208D01*
X148279542Y-103062836D01*
X148198053Y-103215291D01*
X148147872Y-103380715D01*
X148130928Y-103552750D01*
X148130928Y-104098163D01*
X148089599Y-104175485D01*
X148046027Y-104319122D01*
X148031314Y-104468500D01*
X148035001Y-104505933D01*
X148035001Y-105305434D01*
X148003291Y-105315053D01*
X147850836Y-105396542D01*
X147717208Y-105506208D01*
X147630797Y-105611500D01*
X145474131Y-105611500D01*
X145106045Y-105243414D01*
X145156582Y-105228084D01*
X145292829Y-105155258D01*
X145412251Y-105057251D01*
X145510258Y-104937829D01*
X145583084Y-104801582D01*
X145627929Y-104653745D01*
X145643072Y-104500000D01*
X145643072Y-102850000D01*
X145627929Y-102696255D01*
X145594000Y-102584404D01*
X145594000Y-101992660D01*
X145598300Y-101949000D01*
X145594000Y-101905340D01*
X145594000Y-101905333D01*
X145581136Y-101774726D01*
X145530303Y-101607149D01*
X145447753Y-101452709D01*
X145336659Y-101317341D01*
X145302741Y-101289505D01*
X145230406Y-101217170D01*
X145189383Y-101010933D01*
X145103824Y-100804376D01*
X144979612Y-100618480D01*
X144821520Y-100460388D01*
X144638462Y-100338072D01*
X144855000Y-100338072D01*
X145008745Y-100322929D01*
X145156582Y-100278084D01*
X145292829Y-100205258D01*
X145412251Y-100107251D01*
X145510258Y-99987829D01*
X145583084Y-99851582D01*
X145627929Y-99703745D01*
X145643072Y-99550000D01*
X145643072Y-99487000D01*
X147554003Y-99487000D01*
X147526053Y-99539291D01*
X147475872Y-99704715D01*
X147458928Y-99876750D01*
X147458928Y-100364250D01*
X147475872Y-100536285D01*
X147526053Y-100701709D01*
X147607542Y-100854164D01*
X147717208Y-100987792D01*
X147850836Y-101097458D01*
X148003291Y-101178947D01*
X148168715Y-101229128D01*
X148340750Y-101246072D01*
X148750706Y-101246072D01*
X148785117Y-101419067D01*
X148870676Y-101625624D01*
X148994888Y-101811520D01*
X149152980Y-101969612D01*
X149338876Y-102093824D01*
X149545433Y-102179383D01*
X149764712Y-102223000D01*
X149988288Y-102223000D01*
X150207567Y-102179383D01*
X150414124Y-102093824D01*
X150600020Y-101969612D01*
X150758112Y-101811520D01*
X150882324Y-101625624D01*
X150967883Y-101419067D01*
X151002294Y-101246072D01*
X151412250Y-101246072D01*
X151584285Y-101229128D01*
X151749709Y-101178947D01*
X151902164Y-101097458D01*
X152035792Y-100987792D01*
X152145458Y-100854164D01*
X152226947Y-100701709D01*
X152277128Y-100536285D01*
X152294072Y-100364250D01*
X152294072Y-99876750D01*
X152277128Y-99704715D01*
X152226947Y-99539291D01*
X152145458Y-99386836D01*
X152035792Y-99253208D01*
X151950244Y-99183000D01*
X152035792Y-99112792D01*
X152041478Y-99105864D01*
X152168880Y-99296535D01*
X152363465Y-99491120D01*
X152592273Y-99644005D01*
X152846510Y-99749314D01*
X153116408Y-99803000D01*
X153391592Y-99803000D01*
X153543211Y-99772841D01*
X154387159Y-100616789D01*
X154357000Y-100768408D01*
X154357000Y-101043592D01*
X154410686Y-101313490D01*
X154515995Y-101567727D01*
X154668880Y-101796535D01*
X154863465Y-101991120D01*
X155092273Y-102144005D01*
X155346510Y-102249314D01*
X155616408Y-102303000D01*
X155891592Y-102303000D01*
X156161490Y-102249314D01*
X156415727Y-102144005D01*
X156644535Y-101991120D01*
X156839120Y-101796535D01*
X156992005Y-101567727D01*
X157097314Y-101313490D01*
X157151000Y-101043592D01*
X157151000Y-100768408D01*
X157097314Y-100498510D01*
X156992005Y-100244273D01*
X156839120Y-100015465D01*
X156644535Y-99820880D01*
X156415727Y-99667995D01*
X156161490Y-99562686D01*
X155891592Y-99509000D01*
X155616408Y-99509000D01*
X155464789Y-99539159D01*
X155297195Y-99371565D01*
X157468040Y-99371565D01*
X157535020Y-99611656D01*
X157784048Y-99728756D01*
X158051135Y-99795023D01*
X158326017Y-99807910D01*
X158598133Y-99766922D01*
X158857023Y-99673636D01*
X158972980Y-99611656D01*
X159039960Y-99371565D01*
X158254000Y-98585605D01*
X157468040Y-99371565D01*
X155297195Y-99371565D01*
X154620841Y-98695211D01*
X154651000Y-98543592D01*
X154651000Y-98478017D01*
X156852090Y-98478017D01*
X156893078Y-98750133D01*
X156986364Y-99009023D01*
X157048344Y-99124980D01*
X157288435Y-99191960D01*
X158074395Y-98406000D01*
X158433605Y-98406000D01*
X159219565Y-99191960D01*
X159459656Y-99124980D01*
X159576756Y-98875952D01*
X159643023Y-98608865D01*
X159646726Y-98529872D01*
X164765000Y-98529872D01*
X164765000Y-98970128D01*
X164850890Y-99401925D01*
X165019369Y-99808669D01*
X165263962Y-100174729D01*
X165575271Y-100486038D01*
X165941331Y-100730631D01*
X166348075Y-100899110D01*
X166779872Y-100985000D01*
X167220128Y-100985000D01*
X167651925Y-100899110D01*
X168058669Y-100730631D01*
X168424729Y-100486038D01*
X168736038Y-100174729D01*
X168980631Y-99808669D01*
X169149110Y-99401925D01*
X169235000Y-98970128D01*
X169235000Y-98529872D01*
X169149110Y-98098075D01*
X168980631Y-97691331D01*
X168736038Y-97325271D01*
X168424729Y-97013962D01*
X168058669Y-96769369D01*
X167651925Y-96600890D01*
X167220128Y-96515000D01*
X166779872Y-96515000D01*
X166348075Y-96600890D01*
X165941331Y-96769369D01*
X165575271Y-97013962D01*
X165263962Y-97325271D01*
X165019369Y-97691331D01*
X164850890Y-98098075D01*
X164765000Y-98529872D01*
X159646726Y-98529872D01*
X159655910Y-98333983D01*
X159614922Y-98061867D01*
X159521636Y-97802977D01*
X159459656Y-97687020D01*
X159219565Y-97620040D01*
X158433605Y-98406000D01*
X158074395Y-98406000D01*
X157288435Y-97620040D01*
X157048344Y-97687020D01*
X156931244Y-97936048D01*
X156864977Y-98203135D01*
X156852090Y-98478017D01*
X154651000Y-98478017D01*
X154651000Y-98268408D01*
X154597314Y-97998510D01*
X154492005Y-97744273D01*
X154339120Y-97515465D01*
X154264090Y-97440435D01*
X157468040Y-97440435D01*
X158254000Y-98226395D01*
X159039960Y-97440435D01*
X158972980Y-97200344D01*
X158723952Y-97083244D01*
X158456865Y-97016977D01*
X158181983Y-97004090D01*
X157909867Y-97045078D01*
X157650977Y-97138364D01*
X157535020Y-97200344D01*
X157468040Y-97440435D01*
X154264090Y-97440435D01*
X154144535Y-97320880D01*
X153915727Y-97167995D01*
X153661490Y-97062686D01*
X153391592Y-97009000D01*
X153337131Y-97009000D01*
X152257072Y-95928942D01*
X152257072Y-95424750D01*
X152240128Y-95252715D01*
X152189947Y-95087291D01*
X152108458Y-94934836D01*
X151998792Y-94801208D01*
X151865164Y-94691542D01*
X151712709Y-94610053D01*
X151547285Y-94559872D01*
X151375250Y-94542928D01*
X150887750Y-94542928D01*
X150715715Y-94559872D01*
X150550291Y-94610053D01*
X150397836Y-94691542D01*
X150264208Y-94801208D01*
X150194000Y-94886756D01*
X150123792Y-94801208D01*
X149990164Y-94691542D01*
X149837709Y-94610053D01*
X149672285Y-94559872D01*
X149500250Y-94542928D01*
X149012750Y-94542928D01*
X148840715Y-94559872D01*
X148675291Y-94610053D01*
X148522836Y-94691542D01*
X148389208Y-94801208D01*
X148279542Y-94934836D01*
X148198053Y-95087291D01*
X148147872Y-95252715D01*
X148130928Y-95424750D01*
X148130928Y-95970163D01*
X148089599Y-96047485D01*
X148046027Y-96191122D01*
X148031314Y-96340500D01*
X148035001Y-96377933D01*
X148035001Y-97177434D01*
X148003291Y-97187053D01*
X147850836Y-97268542D01*
X147717208Y-97378208D01*
X147607542Y-97511836D01*
X147526053Y-97664291D01*
X147475872Y-97829715D01*
X147462745Y-97963000D01*
X145643072Y-97963000D01*
X145643072Y-97900000D01*
X145629019Y-97757321D01*
X145787624Y-97691624D01*
X145973520Y-97567412D01*
X146131612Y-97409320D01*
X146255824Y-97223424D01*
X146341383Y-97016867D01*
X146385000Y-96797588D01*
X146385000Y-96574012D01*
X146341383Y-96354733D01*
X146255824Y-96148176D01*
X146131612Y-95962280D01*
X145973520Y-95804188D01*
X145787624Y-95679976D01*
X145581067Y-95594417D01*
X145361788Y-95550800D01*
X145138212Y-95550800D01*
X144918933Y-95594417D01*
X144712376Y-95679976D01*
X144526480Y-95804188D01*
X144406868Y-95923800D01*
X143851623Y-95923800D01*
X143814200Y-95920114D01*
X143776777Y-95923800D01*
X143776774Y-95923800D01*
X143664822Y-95934826D01*
X143521185Y-95978398D01*
X143388808Y-96049155D01*
X143272778Y-96144378D01*
X143248916Y-96173454D01*
X142922654Y-96499716D01*
X142893578Y-96523578D01*
X142848915Y-96578001D01*
X142798355Y-96639608D01*
X142767346Y-96697622D01*
X142727598Y-96771986D01*
X142684026Y-96915623D01*
X142674341Y-97013962D01*
X142669314Y-97065000D01*
X142673000Y-97102424D01*
X142673000Y-97202072D01*
X142616582Y-97171916D01*
X142468745Y-97127071D01*
X142315000Y-97111928D01*
X142015000Y-97111928D01*
X141861255Y-97127071D01*
X141713418Y-97171916D01*
X141579064Y-97243730D01*
X141549494Y-97219463D01*
X141439180Y-97160498D01*
X141319482Y-97124188D01*
X141195000Y-97111928D01*
X141180750Y-97115000D01*
X141022000Y-97273750D01*
X141022000Y-98598000D01*
X141042000Y-98598000D01*
X141042000Y-98852000D01*
X141022000Y-98852000D01*
X141022000Y-100176250D01*
X141044873Y-100199123D01*
X141038117Y-100215433D01*
X140994500Y-100434712D01*
X140994500Y-100658288D01*
X141038117Y-100877567D01*
X141123676Y-101084124D01*
X141247888Y-101270020D01*
X141286368Y-101308500D01*
X140496132Y-101308500D01*
X140376520Y-101188888D01*
X140190624Y-101064676D01*
X139984067Y-100979117D01*
X139764788Y-100935500D01*
X139541212Y-100935500D01*
X139321933Y-100979117D01*
X139115376Y-101064676D01*
X138929480Y-101188888D01*
X138771388Y-101346980D01*
X138647176Y-101532876D01*
X138561617Y-101739433D01*
X138518000Y-101958712D01*
X138518000Y-102182288D01*
X138561617Y-102401567D01*
X138647176Y-102608124D01*
X138771388Y-102794020D01*
X138929480Y-102952112D01*
X139115376Y-103076324D01*
X139321933Y-103161883D01*
X139541212Y-103205500D01*
X139764788Y-103205500D01*
X139956928Y-103167281D01*
X139956928Y-104500000D01*
X139972071Y-104653745D01*
X140016916Y-104801582D01*
X140089742Y-104937829D01*
X140130103Y-104987009D01*
X140133000Y-105016423D01*
X140133000Y-105016425D01*
X140139166Y-105079034D01*
X140059020Y-104998888D01*
X139873124Y-104874676D01*
X139666567Y-104789117D01*
X139447288Y-104745500D01*
X139223712Y-104745500D01*
X139004433Y-104789117D01*
X138797876Y-104874676D01*
X138611980Y-104998888D01*
X138518297Y-105092571D01*
X138471824Y-104980376D01*
X138347612Y-104794480D01*
X138189520Y-104636388D01*
X138003624Y-104512176D01*
X137797067Y-104426617D01*
X137590830Y-104385594D01*
X137243072Y-104037837D01*
X137243072Y-103791750D01*
X137226128Y-103619715D01*
X137175947Y-103454291D01*
X137094458Y-103301836D01*
X136984792Y-103168208D01*
X136851164Y-103058542D01*
X136743645Y-103001072D01*
X136838000Y-103001072D01*
X136962482Y-102988812D01*
X137082180Y-102952502D01*
X137192494Y-102893537D01*
X137289185Y-102814185D01*
X137368537Y-102717494D01*
X137427502Y-102607180D01*
X137463812Y-102487482D01*
X137476072Y-102363000D01*
X137476072Y-101713000D01*
X137463812Y-101588518D01*
X137427502Y-101468820D01*
X137368537Y-101358506D01*
X137289185Y-101261815D01*
X137192494Y-101182463D01*
X137082180Y-101123498D01*
X136965159Y-101088000D01*
X137082180Y-101052502D01*
X137192494Y-100993537D01*
X137289185Y-100914185D01*
X137368537Y-100817494D01*
X137427502Y-100707180D01*
X137463812Y-100587482D01*
X137476072Y-100463000D01*
X137473000Y-100423750D01*
X137314250Y-100265000D01*
X136435000Y-100265000D01*
X136435000Y-100285000D01*
X136181000Y-100285000D01*
X136181000Y-100265000D01*
X136161000Y-100265000D01*
X136161000Y-100085000D01*
X137761928Y-100085000D01*
X137774188Y-100209482D01*
X137810498Y-100329180D01*
X137869463Y-100439494D01*
X137948815Y-100536185D01*
X138045506Y-100615537D01*
X138155820Y-100674502D01*
X138275518Y-100710812D01*
X138400000Y-100723072D01*
X138814250Y-100720000D01*
X138973000Y-100561250D01*
X138973000Y-99724500D01*
X137923750Y-99724500D01*
X137765000Y-99883250D01*
X137761928Y-100085000D01*
X136161000Y-100085000D01*
X136161000Y-100011000D01*
X136181000Y-100011000D01*
X136181000Y-99336750D01*
X136435000Y-99336750D01*
X136435000Y-100011000D01*
X137314250Y-100011000D01*
X137473000Y-99852250D01*
X137476072Y-99813000D01*
X137463812Y-99688518D01*
X137427502Y-99568820D01*
X137368537Y-99458506D01*
X137289185Y-99361815D01*
X137192494Y-99282463D01*
X137082180Y-99223498D01*
X136962482Y-99187188D01*
X136838000Y-99174928D01*
X136593750Y-99178000D01*
X136435000Y-99336750D01*
X136181000Y-99336750D01*
X136022250Y-99178000D01*
X135778000Y-99174928D01*
X135653518Y-99187188D01*
X135533820Y-99223498D01*
X135423506Y-99282463D01*
X135326815Y-99361815D01*
X135309402Y-99383033D01*
X135177813Y-99312697D01*
X135010236Y-99261864D01*
X134941244Y-99255069D01*
X134882180Y-99223498D01*
X134762482Y-99187188D01*
X134638000Y-99174928D01*
X133578000Y-99174928D01*
X133453518Y-99187188D01*
X133333820Y-99223498D01*
X133223506Y-99282463D01*
X133126815Y-99361815D01*
X133047463Y-99458506D01*
X132988498Y-99568820D01*
X132952188Y-99688518D01*
X132939928Y-99813000D01*
X132939928Y-99984854D01*
X132779788Y-99953000D01*
X132556212Y-99953000D01*
X132336933Y-99996617D01*
X132130376Y-100082176D01*
X131944480Y-100206388D01*
X131786388Y-100364480D01*
X131662176Y-100550376D01*
X131576617Y-100756933D01*
X131533000Y-100976212D01*
X131533000Y-101199788D01*
X131576617Y-101419067D01*
X131662176Y-101625624D01*
X131786388Y-101811520D01*
X131944480Y-101969612D01*
X132130376Y-102093824D01*
X132336933Y-102179383D01*
X132556212Y-102223000D01*
X132779788Y-102223000D01*
X132939928Y-102191146D01*
X132939928Y-102363000D01*
X132952188Y-102487482D01*
X132988498Y-102607180D01*
X133047463Y-102717494D01*
X133126815Y-102814185D01*
X133219000Y-102889839D01*
X133219001Y-103388909D01*
X133184053Y-103454291D01*
X133133872Y-103619715D01*
X133116928Y-103791750D01*
X133116928Y-104704250D01*
X133133872Y-104876285D01*
X133184053Y-105041709D01*
X133265542Y-105194164D01*
X133353500Y-105301341D01*
X133353500Y-105633059D01*
X133265542Y-105740236D01*
X133184053Y-105892691D01*
X133133872Y-106058115D01*
X133116928Y-106230150D01*
X133116928Y-107142650D01*
X133133872Y-107314685D01*
X133184053Y-107480109D01*
X133265542Y-107632564D01*
X133375208Y-107766192D01*
X133508836Y-107875858D01*
X133661291Y-107957347D01*
X133728499Y-107977734D01*
X134248505Y-108497741D01*
X134276341Y-108531659D01*
X134411709Y-108642753D01*
X134566149Y-108725303D01*
X134630397Y-108744792D01*
X134733724Y-108776136D01*
X134766924Y-108779406D01*
X134864333Y-108789000D01*
X134864339Y-108789000D01*
X134907999Y-108793300D01*
X134951659Y-108789000D01*
X137544017Y-108789000D01*
X137582525Y-108846632D01*
X137697893Y-108962000D01*
X134005131Y-108962000D01*
X133001572Y-107958442D01*
X133001572Y-107898750D01*
X132984628Y-107726715D01*
X132934447Y-107561291D01*
X132852958Y-107408836D01*
X132743292Y-107275208D01*
X132609664Y-107165542D01*
X132458981Y-107085000D01*
X132609664Y-107004458D01*
X132743292Y-106894792D01*
X132852958Y-106761164D01*
X132934447Y-106608709D01*
X132984628Y-106443285D01*
X133001572Y-106271250D01*
X133001572Y-105358750D01*
X132984628Y-105186715D01*
X132934447Y-105021291D01*
X132852958Y-104868836D01*
X132743292Y-104735208D01*
X132609664Y-104625542D01*
X132457209Y-104544053D01*
X132291785Y-104493872D01*
X132119750Y-104476928D01*
X131632250Y-104476928D01*
X131460215Y-104493872D01*
X131294791Y-104544053D01*
X131142336Y-104625542D01*
X131008708Y-104735208D01*
X131003492Y-104741564D01*
X130939685Y-104663815D01*
X130842994Y-104584463D01*
X130732680Y-104525498D01*
X130612982Y-104489188D01*
X130488500Y-104476928D01*
X130286750Y-104480000D01*
X130128000Y-104638750D01*
X130128000Y-105688000D01*
X130148000Y-105688000D01*
X130148000Y-105942000D01*
X130128000Y-105942000D01*
X130128000Y-105962000D01*
X129874000Y-105962000D01*
X129874000Y-105942000D01*
X129854000Y-105942000D01*
X129854000Y-105688000D01*
X129874000Y-105688000D01*
X129874000Y-104638750D01*
X129715250Y-104480000D01*
X129513500Y-104476928D01*
X129389018Y-104489188D01*
X129269320Y-104525498D01*
X129159006Y-104584463D01*
X129062315Y-104663815D01*
X128982963Y-104760506D01*
X128923998Y-104870820D01*
X128887688Y-104990518D01*
X128875428Y-105115000D01*
X128876979Y-105324105D01*
X128867037Y-105305506D01*
X128787685Y-105208815D01*
X128690994Y-105129463D01*
X128580680Y-105070498D01*
X128460982Y-105034188D01*
X128336500Y-105021928D01*
X127922250Y-105025000D01*
X127763500Y-105183750D01*
X127763500Y-106020500D01*
X127783500Y-106020500D01*
X127783500Y-106274500D01*
X127763500Y-106274500D01*
X127763500Y-106294500D01*
X127509500Y-106294500D01*
X127509500Y-106274500D01*
X127489500Y-106274500D01*
X127489500Y-106020500D01*
X127509500Y-106020500D01*
X127509500Y-105183750D01*
X127350750Y-105025000D01*
X127173752Y-105023687D01*
X127260324Y-104894124D01*
X127345883Y-104687567D01*
X127389500Y-104468288D01*
X127389500Y-104244712D01*
X127345883Y-104025433D01*
X127260324Y-103818876D01*
X127136112Y-103632980D01*
X126978020Y-103474888D01*
X126792124Y-103350676D01*
X126585567Y-103265117D01*
X126366288Y-103221500D01*
X126142712Y-103221500D01*
X125923433Y-103265117D01*
X125716876Y-103350676D01*
X125530980Y-103474888D01*
X125372888Y-103632980D01*
X125248676Y-103818876D01*
X125235548Y-103850569D01*
X125216112Y-103821480D01*
X125058020Y-103663388D01*
X124872124Y-103539176D01*
X124665567Y-103453617D01*
X124446288Y-103410000D01*
X124222712Y-103410000D01*
X124003433Y-103453617D01*
X123796876Y-103539176D01*
X123610980Y-103663388D01*
X123452888Y-103821480D01*
X123328676Y-104007376D01*
X123243117Y-104213933D01*
X123202094Y-104420171D01*
X122990759Y-104631506D01*
X122956842Y-104659341D01*
X122929007Y-104693258D01*
X122929005Y-104693260D01*
X122845748Y-104794709D01*
X122763198Y-104949148D01*
X122712364Y-105116726D01*
X122710000Y-105140729D01*
X122710000Y-98529872D01*
X125515000Y-98529872D01*
X125515000Y-98970128D01*
X125600890Y-99401925D01*
X125769369Y-99808669D01*
X126013962Y-100174729D01*
X126325271Y-100486038D01*
X126691331Y-100730631D01*
X127098075Y-100899110D01*
X127529872Y-100985000D01*
X127970128Y-100985000D01*
X128401925Y-100899110D01*
X128808669Y-100730631D01*
X129174729Y-100486038D01*
X129486038Y-100174729D01*
X129730631Y-99808669D01*
X129899110Y-99401925D01*
X129985000Y-98970128D01*
X129985000Y-98529872D01*
X129899110Y-98098075D01*
X129730631Y-97691331D01*
X129719193Y-97674212D01*
X132041000Y-97674212D01*
X132041000Y-97897788D01*
X132084617Y-98117067D01*
X132170176Y-98323624D01*
X132294388Y-98509520D01*
X132452480Y-98667612D01*
X132638376Y-98791824D01*
X132844933Y-98877383D01*
X133064212Y-98921000D01*
X133287788Y-98921000D01*
X133434838Y-98891750D01*
X133536836Y-98975458D01*
X133689291Y-99056947D01*
X133854715Y-99107128D01*
X134026750Y-99124072D01*
X134514250Y-99124072D01*
X134686285Y-99107128D01*
X134851709Y-99056947D01*
X135004164Y-98975458D01*
X135137792Y-98865792D01*
X135143008Y-98859436D01*
X135206815Y-98937185D01*
X135303506Y-99016537D01*
X135413820Y-99075502D01*
X135533518Y-99111812D01*
X135658000Y-99124072D01*
X135859750Y-99121000D01*
X136018500Y-98962250D01*
X136018500Y-97913000D01*
X136272500Y-97913000D01*
X136272500Y-98962250D01*
X136431250Y-99121000D01*
X136633000Y-99124072D01*
X136757482Y-99111812D01*
X136877180Y-99075502D01*
X136987494Y-99016537D01*
X137084185Y-98937185D01*
X137163537Y-98840494D01*
X137222502Y-98730180D01*
X137258812Y-98610482D01*
X137271072Y-98486000D01*
X137268000Y-98071750D01*
X137109250Y-97913000D01*
X136272500Y-97913000D01*
X136018500Y-97913000D01*
X135998500Y-97913000D01*
X135998500Y-97659000D01*
X136018500Y-97659000D01*
X136018500Y-96609750D01*
X136272500Y-96609750D01*
X136272500Y-97659000D01*
X137109250Y-97659000D01*
X137268000Y-97500250D01*
X137268159Y-97478750D01*
X137761928Y-97478750D01*
X137761928Y-97966250D01*
X137778872Y-98138285D01*
X137829053Y-98303709D01*
X137910542Y-98456164D01*
X138020208Y-98589792D01*
X138026564Y-98595008D01*
X137948815Y-98658815D01*
X137869463Y-98755506D01*
X137810498Y-98865820D01*
X137774188Y-98985518D01*
X137761928Y-99110000D01*
X137765000Y-99311750D01*
X137923750Y-99470500D01*
X138973000Y-99470500D01*
X138973000Y-99450500D01*
X139227000Y-99450500D01*
X139227000Y-99470500D01*
X139247000Y-99470500D01*
X139247000Y-99724500D01*
X139227000Y-99724500D01*
X139227000Y-100561250D01*
X139385750Y-100720000D01*
X139800000Y-100723072D01*
X139924482Y-100710812D01*
X140044180Y-100674502D01*
X140154494Y-100615537D01*
X140251185Y-100536185D01*
X140330537Y-100439494D01*
X140389502Y-100329180D01*
X140397264Y-100303591D01*
X140470518Y-100325812D01*
X140595000Y-100338072D01*
X140609250Y-100335000D01*
X140768000Y-100176250D01*
X140768000Y-98852000D01*
X140748000Y-98852000D01*
X140748000Y-98598000D01*
X140768000Y-98598000D01*
X140768000Y-97273750D01*
X140609250Y-97115000D01*
X140595000Y-97111928D01*
X140470518Y-97124188D01*
X140374586Y-97153289D01*
X140370947Y-97141291D01*
X140289458Y-96988836D01*
X140179792Y-96855208D01*
X140097478Y-96787654D01*
X140153612Y-96731520D01*
X140277824Y-96545624D01*
X140363383Y-96339067D01*
X140407000Y-96119788D01*
X140407000Y-95896212D01*
X140363383Y-95676933D01*
X140277824Y-95470376D01*
X140153612Y-95284480D01*
X139995520Y-95126388D01*
X139809624Y-95002176D01*
X139603067Y-94916617D01*
X139383788Y-94873000D01*
X139160212Y-94873000D01*
X138940933Y-94916617D01*
X138734376Y-95002176D01*
X138548480Y-95126388D01*
X138390388Y-95284480D01*
X138266176Y-95470376D01*
X138180617Y-95676933D01*
X138137000Y-95896212D01*
X138137000Y-96119788D01*
X138180617Y-96339067D01*
X138211001Y-96412420D01*
X138211001Y-96714987D01*
X138153836Y-96745542D01*
X138020208Y-96855208D01*
X137910542Y-96988836D01*
X137829053Y-97141291D01*
X137778872Y-97306715D01*
X137761928Y-97478750D01*
X137268159Y-97478750D01*
X137271072Y-97086000D01*
X137258812Y-96961518D01*
X137222502Y-96841820D01*
X137163537Y-96731506D01*
X137084185Y-96634815D01*
X136987494Y-96555463D01*
X136877180Y-96496498D01*
X136757482Y-96460188D01*
X136633000Y-96447928D01*
X136431250Y-96451000D01*
X136272500Y-96609750D01*
X136018500Y-96609750D01*
X135859750Y-96451000D01*
X135658000Y-96447928D01*
X135533518Y-96460188D01*
X135413820Y-96496498D01*
X135303506Y-96555463D01*
X135206815Y-96634815D01*
X135143008Y-96712564D01*
X135137792Y-96706208D01*
X135004164Y-96596542D01*
X134851709Y-96515053D01*
X134686285Y-96464872D01*
X134514250Y-96447928D01*
X134026750Y-96447928D01*
X133854715Y-96464872D01*
X133689291Y-96515053D01*
X133536836Y-96596542D01*
X133434838Y-96680250D01*
X133287788Y-96651000D01*
X133064212Y-96651000D01*
X132844933Y-96694617D01*
X132638376Y-96780176D01*
X132452480Y-96904388D01*
X132294388Y-97062480D01*
X132170176Y-97248376D01*
X132084617Y-97454933D01*
X132041000Y-97674212D01*
X129719193Y-97674212D01*
X129486038Y-97325271D01*
X129174729Y-97013962D01*
X128808669Y-96769369D01*
X128401925Y-96600890D01*
X127970128Y-96515000D01*
X127529872Y-96515000D01*
X127098075Y-96600890D01*
X126691331Y-96769369D01*
X126325271Y-97013962D01*
X126013962Y-97325271D01*
X125769369Y-97691331D01*
X125600890Y-98098075D01*
X125515000Y-98529872D01*
X122710000Y-98529872D01*
X122710000Y-92534729D01*
X122728386Y-92347215D01*
X122772757Y-92200252D01*
X122844829Y-92064703D01*
X122941852Y-91945742D01*
X123060144Y-91847882D01*
X123195181Y-91774868D01*
X123341833Y-91729471D01*
X123527092Y-91710000D01*
X173699808Y-91710000D01*
X173698815Y-91710815D01*
G04 #@! TA.AperFunction,Conductor*
D19*
G36*
X173698815Y-91710815D02*
G01*
X173619463Y-91807506D01*
X173560498Y-91917820D01*
X173524188Y-92037518D01*
X173511928Y-92162000D01*
X173511928Y-92738000D01*
X172343132Y-92738000D01*
X172223520Y-92618388D01*
X172037624Y-92494176D01*
X171831067Y-92408617D01*
X171611788Y-92365000D01*
X171388212Y-92365000D01*
X171168933Y-92408617D01*
X170962376Y-92494176D01*
X170776480Y-92618388D01*
X170618388Y-92776480D01*
X170494176Y-92962376D01*
X170408617Y-93168933D01*
X170365000Y-93388212D01*
X170365000Y-93611788D01*
X170408617Y-93831067D01*
X170494176Y-94037624D01*
X170618388Y-94223520D01*
X170776480Y-94381612D01*
X170962376Y-94505824D01*
X171168933Y-94591383D01*
X171388212Y-94635000D01*
X171611788Y-94635000D01*
X171831067Y-94591383D01*
X172037624Y-94505824D01*
X172223520Y-94381612D01*
X172343132Y-94262000D01*
X172563798Y-94262000D01*
X172565000Y-94326250D01*
X172723750Y-94485000D01*
X173473000Y-94485000D01*
X173473000Y-94465000D01*
X173727000Y-94465000D01*
X173727000Y-94485000D01*
X173747000Y-94485000D01*
X173747000Y-94739000D01*
X173727000Y-94739000D01*
X173727000Y-94759000D01*
X173473000Y-94759000D01*
X173473000Y-94739000D01*
X172723750Y-94739000D01*
X172565000Y-94897750D01*
X172561928Y-95062000D01*
X172574188Y-95186482D01*
X172610498Y-95306180D01*
X172669463Y-95416494D01*
X172748815Y-95513185D01*
X172756046Y-95519120D01*
X172663542Y-95631836D01*
X172582053Y-95784291D01*
X172531872Y-95949715D01*
X172514928Y-96121750D01*
X172514928Y-97034250D01*
X172531872Y-97206285D01*
X172582053Y-97371709D01*
X172609501Y-97423060D01*
X172609501Y-97493434D01*
X172577791Y-97503053D01*
X172425336Y-97584542D01*
X172291708Y-97694208D01*
X172182042Y-97827836D01*
X172100553Y-97980291D01*
X172050372Y-98145715D01*
X172033428Y-98317750D01*
X172033428Y-98805250D01*
X172050372Y-98977285D01*
X172100553Y-99142709D01*
X172182042Y-99295164D01*
X172291708Y-99428792D01*
X172377256Y-99499000D01*
X172291708Y-99569208D01*
X172182042Y-99702836D01*
X172100553Y-99855291D01*
X172050372Y-100020715D01*
X172033428Y-100192750D01*
X172033428Y-100680250D01*
X172050372Y-100852285D01*
X172100553Y-101017709D01*
X172182042Y-101170164D01*
X172291708Y-101303792D01*
X172332281Y-101337089D01*
X171557370Y-102112000D01*
X171388212Y-102112000D01*
X171168933Y-102155617D01*
X170962376Y-102241176D01*
X170776480Y-102365388D01*
X170618388Y-102523480D01*
X170494176Y-102709376D01*
X170408617Y-102915933D01*
X170365000Y-103135212D01*
X170365000Y-103358788D01*
X170401045Y-103540000D01*
X162115123Y-103540000D01*
X162084424Y-103543024D01*
X162075180Y-103542959D01*
X162065315Y-103543926D01*
X161774169Y-103574526D01*
X161711138Y-103587464D01*
X161647920Y-103599524D01*
X161638430Y-103602389D01*
X161358774Y-103688957D01*
X161299479Y-103713883D01*
X161239785Y-103738001D01*
X161231033Y-103742655D01*
X160973517Y-103881894D01*
X160920158Y-103917885D01*
X160866323Y-103953114D01*
X160858640Y-103959379D01*
X160633073Y-104145984D01*
X160587735Y-104191640D01*
X160541753Y-104236669D01*
X160535434Y-104244308D01*
X160350408Y-104471172D01*
X160314835Y-104524714D01*
X160278440Y-104577867D01*
X160273725Y-104586588D01*
X160136288Y-104845069D01*
X160111780Y-104904530D01*
X160086416Y-104963710D01*
X160083484Y-104973180D01*
X159998870Y-105253435D01*
X159986377Y-105316532D01*
X159972991Y-105379506D01*
X159971955Y-105389365D01*
X159943388Y-105680717D01*
X159943388Y-105680733D01*
X159940001Y-105715123D01*
X159940000Y-109465271D01*
X159921614Y-109652784D01*
X159877243Y-109799748D01*
X159805171Y-109935297D01*
X159708148Y-110054258D01*
X159589856Y-110152118D01*
X159454819Y-110225132D01*
X159308167Y-110270529D01*
X159122908Y-110290000D01*
X156372283Y-110290000D01*
X156415727Y-110272005D01*
X156644535Y-110119120D01*
X156839120Y-109924535D01*
X156992005Y-109695727D01*
X157097314Y-109441490D01*
X157151000Y-109171592D01*
X157151000Y-108896408D01*
X157097314Y-108626510D01*
X156992005Y-108372273D01*
X156839120Y-108143465D01*
X156644535Y-107948880D01*
X156415727Y-107795995D01*
X156161490Y-107690686D01*
X155891592Y-107637000D01*
X155616408Y-107637000D01*
X155464789Y-107667159D01*
X155297195Y-107499565D01*
X157468040Y-107499565D01*
X157535020Y-107739656D01*
X157784048Y-107856756D01*
X158051135Y-107923023D01*
X158326017Y-107935910D01*
X158598133Y-107894922D01*
X158857023Y-107801636D01*
X158972980Y-107739656D01*
X159039960Y-107499565D01*
X158254000Y-106713605D01*
X157468040Y-107499565D01*
X155297195Y-107499565D01*
X154620841Y-106823211D01*
X154651000Y-106671592D01*
X154651000Y-106606017D01*
X156852090Y-106606017D01*
X156893078Y-106878133D01*
X156986364Y-107137023D01*
X157048344Y-107252980D01*
X157288435Y-107319960D01*
X158074395Y-106534000D01*
X158433605Y-106534000D01*
X159219565Y-107319960D01*
X159459656Y-107252980D01*
X159576756Y-107003952D01*
X159643023Y-106736865D01*
X159655910Y-106461983D01*
X159614922Y-106189867D01*
X159521636Y-105930977D01*
X159459656Y-105815020D01*
X159219565Y-105748040D01*
X158433605Y-106534000D01*
X158074395Y-106534000D01*
X157288435Y-105748040D01*
X157048344Y-105815020D01*
X156931244Y-106064048D01*
X156864977Y-106331135D01*
X156852090Y-106606017D01*
X154651000Y-106606017D01*
X154651000Y-106396408D01*
X154597314Y-106126510D01*
X154492005Y-105872273D01*
X154339120Y-105643465D01*
X154264090Y-105568435D01*
X157468040Y-105568435D01*
X158254000Y-106354395D01*
X159039960Y-105568435D01*
X158972980Y-105328344D01*
X158723952Y-105211244D01*
X158456865Y-105144977D01*
X158181983Y-105132090D01*
X157909867Y-105173078D01*
X157650977Y-105266364D01*
X157535020Y-105328344D01*
X157468040Y-105568435D01*
X154264090Y-105568435D01*
X154144535Y-105448880D01*
X153915727Y-105295995D01*
X153661490Y-105190686D01*
X153391592Y-105137000D01*
X153337131Y-105137000D01*
X152257072Y-104056942D01*
X152257072Y-103552750D01*
X152240128Y-103380715D01*
X152189947Y-103215291D01*
X152108458Y-103062836D01*
X151998792Y-102929208D01*
X151865164Y-102819542D01*
X151712709Y-102738053D01*
X151547285Y-102687872D01*
X151375250Y-102670928D01*
X150887750Y-102670928D01*
X150715715Y-102687872D01*
X150550291Y-102738053D01*
X150397836Y-102819542D01*
X150264208Y-102929208D01*
X150194000Y-103014756D01*
X150123792Y-102929208D01*
X149990164Y-102819542D01*
X149837709Y-102738053D01*
X149672285Y-102687872D01*
X149500250Y-102670928D01*
X149012750Y-102670928D01*
X148840715Y-102687872D01*
X148675291Y-102738053D01*
X148522836Y-102819542D01*
X148389208Y-102929208D01*
X148279542Y-103062836D01*
X148198053Y-103215291D01*
X148147872Y-103380715D01*
X148130928Y-103552750D01*
X148130928Y-104098163D01*
X148089599Y-104175485D01*
X148046027Y-104319122D01*
X148031314Y-104468500D01*
X148035001Y-104505933D01*
X148035001Y-105305434D01*
X148003291Y-105315053D01*
X147850836Y-105396542D01*
X147717208Y-105506208D01*
X147630797Y-105611500D01*
X145474131Y-105611500D01*
X145106045Y-105243414D01*
X145156582Y-105228084D01*
X145292829Y-105155258D01*
X145412251Y-105057251D01*
X145510258Y-104937829D01*
X145583084Y-104801582D01*
X145627929Y-104653745D01*
X145643072Y-104500000D01*
X145643072Y-102850000D01*
X145627929Y-102696255D01*
X145594000Y-102584404D01*
X145594000Y-101992660D01*
X145598300Y-101949000D01*
X145594000Y-101905340D01*
X145594000Y-101905333D01*
X145581136Y-101774726D01*
X145530303Y-101607149D01*
X145447753Y-101452709D01*
X145336659Y-101317341D01*
X145302741Y-101289505D01*
X145230406Y-101217170D01*
X145189383Y-101010933D01*
X145103824Y-100804376D01*
X144979612Y-100618480D01*
X144821520Y-100460388D01*
X144638462Y-100338072D01*
X144855000Y-100338072D01*
X145008745Y-100322929D01*
X145156582Y-100278084D01*
X145292829Y-100205258D01*
X145412251Y-100107251D01*
X145510258Y-99987829D01*
X145583084Y-99851582D01*
X145627929Y-99703745D01*
X145643072Y-99550000D01*
X145643072Y-99487000D01*
X147554003Y-99487000D01*
X147526053Y-99539291D01*
X147475872Y-99704715D01*
X147458928Y-99876750D01*
X147458928Y-100364250D01*
X147475872Y-100536285D01*
X147526053Y-100701709D01*
X147607542Y-100854164D01*
X147717208Y-100987792D01*
X147850836Y-101097458D01*
X148003291Y-101178947D01*
X148168715Y-101229128D01*
X148340750Y-101246072D01*
X148750706Y-101246072D01*
X148785117Y-101419067D01*
X148870676Y-101625624D01*
X148994888Y-101811520D01*
X149152980Y-101969612D01*
X149338876Y-102093824D01*
X149545433Y-102179383D01*
X149764712Y-102223000D01*
X149988288Y-102223000D01*
X150207567Y-102179383D01*
X150414124Y-102093824D01*
X150600020Y-101969612D01*
X150758112Y-101811520D01*
X150882324Y-101625624D01*
X150967883Y-101419067D01*
X151002294Y-101246072D01*
X151412250Y-101246072D01*
X151584285Y-101229128D01*
X151749709Y-101178947D01*
X151902164Y-101097458D01*
X152035792Y-100987792D01*
X152145458Y-100854164D01*
X152226947Y-100701709D01*
X152277128Y-100536285D01*
X152294072Y-100364250D01*
X152294072Y-99876750D01*
X152277128Y-99704715D01*
X152226947Y-99539291D01*
X152145458Y-99386836D01*
X152035792Y-99253208D01*
X151950244Y-99183000D01*
X152035792Y-99112792D01*
X152041478Y-99105864D01*
X152168880Y-99296535D01*
X152363465Y-99491120D01*
X152592273Y-99644005D01*
X152846510Y-99749314D01*
X153116408Y-99803000D01*
X153391592Y-99803000D01*
X153543211Y-99772841D01*
X154387159Y-100616789D01*
X154357000Y-100768408D01*
X154357000Y-101043592D01*
X154410686Y-101313490D01*
X154515995Y-101567727D01*
X154668880Y-101796535D01*
X154863465Y-101991120D01*
X155092273Y-102144005D01*
X155346510Y-102249314D01*
X155616408Y-102303000D01*
X155891592Y-102303000D01*
X156161490Y-102249314D01*
X156415727Y-102144005D01*
X156644535Y-101991120D01*
X156839120Y-101796535D01*
X156992005Y-101567727D01*
X157097314Y-101313490D01*
X157151000Y-101043592D01*
X157151000Y-100768408D01*
X157097314Y-100498510D01*
X156992005Y-100244273D01*
X156839120Y-100015465D01*
X156644535Y-99820880D01*
X156415727Y-99667995D01*
X156161490Y-99562686D01*
X155891592Y-99509000D01*
X155616408Y-99509000D01*
X155464789Y-99539159D01*
X155297195Y-99371565D01*
X157468040Y-99371565D01*
X157535020Y-99611656D01*
X157784048Y-99728756D01*
X158051135Y-99795023D01*
X158326017Y-99807910D01*
X158598133Y-99766922D01*
X158857023Y-99673636D01*
X158972980Y-99611656D01*
X159039960Y-99371565D01*
X158254000Y-98585605D01*
X157468040Y-99371565D01*
X155297195Y-99371565D01*
X154620841Y-98695211D01*
X154651000Y-98543592D01*
X154651000Y-98478017D01*
X156852090Y-98478017D01*
X156893078Y-98750133D01*
X156986364Y-99009023D01*
X157048344Y-99124980D01*
X157288435Y-99191960D01*
X158074395Y-98406000D01*
X158433605Y-98406000D01*
X159219565Y-99191960D01*
X159459656Y-99124980D01*
X159576756Y-98875952D01*
X159643023Y-98608865D01*
X159646726Y-98529872D01*
X164765000Y-98529872D01*
X164765000Y-98970128D01*
X164850890Y-99401925D01*
X165019369Y-99808669D01*
X165263962Y-100174729D01*
X165575271Y-100486038D01*
X165941331Y-100730631D01*
X166348075Y-100899110D01*
X166779872Y-100985000D01*
X167220128Y-100985000D01*
X167651925Y-100899110D01*
X168058669Y-100730631D01*
X168424729Y-100486038D01*
X168736038Y-100174729D01*
X168980631Y-99808669D01*
X169149110Y-99401925D01*
X169235000Y-98970128D01*
X169235000Y-98529872D01*
X169149110Y-98098075D01*
X168980631Y-97691331D01*
X168736038Y-97325271D01*
X168424729Y-97013962D01*
X168058669Y-96769369D01*
X167651925Y-96600890D01*
X167220128Y-96515000D01*
X166779872Y-96515000D01*
X166348075Y-96600890D01*
X165941331Y-96769369D01*
X165575271Y-97013962D01*
X165263962Y-97325271D01*
X165019369Y-97691331D01*
X164850890Y-98098075D01*
X164765000Y-98529872D01*
X159646726Y-98529872D01*
X159655910Y-98333983D01*
X159614922Y-98061867D01*
X159521636Y-97802977D01*
X159459656Y-97687020D01*
X159219565Y-97620040D01*
X158433605Y-98406000D01*
X158074395Y-98406000D01*
X157288435Y-97620040D01*
X157048344Y-97687020D01*
X156931244Y-97936048D01*
X156864977Y-98203135D01*
X156852090Y-98478017D01*
X154651000Y-98478017D01*
X154651000Y-98268408D01*
X154597314Y-97998510D01*
X154492005Y-97744273D01*
X154339120Y-97515465D01*
X154264090Y-97440435D01*
X157468040Y-97440435D01*
X158254000Y-98226395D01*
X159039960Y-97440435D01*
X158972980Y-97200344D01*
X158723952Y-97083244D01*
X158456865Y-97016977D01*
X158181983Y-97004090D01*
X157909867Y-97045078D01*
X157650977Y-97138364D01*
X157535020Y-97200344D01*
X157468040Y-97440435D01*
X154264090Y-97440435D01*
X154144535Y-97320880D01*
X153915727Y-97167995D01*
X153661490Y-97062686D01*
X153391592Y-97009000D01*
X153337131Y-97009000D01*
X152257072Y-95928942D01*
X152257072Y-95424750D01*
X152240128Y-95252715D01*
X152189947Y-95087291D01*
X152108458Y-94934836D01*
X151998792Y-94801208D01*
X151865164Y-94691542D01*
X151712709Y-94610053D01*
X151547285Y-94559872D01*
X151375250Y-94542928D01*
X150887750Y-94542928D01*
X150715715Y-94559872D01*
X150550291Y-94610053D01*
X150397836Y-94691542D01*
X150264208Y-94801208D01*
X150194000Y-94886756D01*
X150123792Y-94801208D01*
X149990164Y-94691542D01*
X149837709Y-94610053D01*
X149672285Y-94559872D01*
X149500250Y-94542928D01*
X149012750Y-94542928D01*
X148840715Y-94559872D01*
X148675291Y-94610053D01*
X148522836Y-94691542D01*
X148389208Y-94801208D01*
X148279542Y-94934836D01*
X148198053Y-95087291D01*
X148147872Y-95252715D01*
X148130928Y-95424750D01*
X148130928Y-95970163D01*
X148089599Y-96047485D01*
X148046027Y-96191122D01*
X148031314Y-96340500D01*
X148035001Y-96377933D01*
X148035001Y-97177434D01*
X148003291Y-97187053D01*
X147850836Y-97268542D01*
X147717208Y-97378208D01*
X147607542Y-97511836D01*
X147526053Y-97664291D01*
X147475872Y-97829715D01*
X147462745Y-97963000D01*
X145643072Y-97963000D01*
X145643072Y-97900000D01*
X145629019Y-97757321D01*
X145787624Y-97691624D01*
X145973520Y-97567412D01*
X146131612Y-97409320D01*
X146255824Y-97223424D01*
X146341383Y-97016867D01*
X146385000Y-96797588D01*
X146385000Y-96574012D01*
X146341383Y-96354733D01*
X146255824Y-96148176D01*
X146131612Y-95962280D01*
X145973520Y-95804188D01*
X145787624Y-95679976D01*
X145581067Y-95594417D01*
X145361788Y-95550800D01*
X145138212Y-95550800D01*
X144918933Y-95594417D01*
X144712376Y-95679976D01*
X144526480Y-95804188D01*
X144406868Y-95923800D01*
X143851623Y-95923800D01*
X143814200Y-95920114D01*
X143776777Y-95923800D01*
X143776774Y-95923800D01*
X143664822Y-95934826D01*
X143521185Y-95978398D01*
X143388808Y-96049155D01*
X143272778Y-96144378D01*
X143248916Y-96173454D01*
X142922654Y-96499716D01*
X142893578Y-96523578D01*
X142848915Y-96578001D01*
X142798355Y-96639608D01*
X142767346Y-96697622D01*
X142727598Y-96771986D01*
X142684026Y-96915623D01*
X142674341Y-97013962D01*
X142669314Y-97065000D01*
X142673000Y-97102424D01*
X142673000Y-97202072D01*
X142616582Y-97171916D01*
X142468745Y-97127071D01*
X142315000Y-97111928D01*
X142015000Y-97111928D01*
X141861255Y-97127071D01*
X141713418Y-97171916D01*
X141579064Y-97243730D01*
X141549494Y-97219463D01*
X141439180Y-97160498D01*
X141319482Y-97124188D01*
X141195000Y-97111928D01*
X141180750Y-97115000D01*
X141022000Y-97273750D01*
X141022000Y-98598000D01*
X141042000Y-98598000D01*
X141042000Y-98852000D01*
X141022000Y-98852000D01*
X141022000Y-100176250D01*
X141044873Y-100199123D01*
X141038117Y-100215433D01*
X140994500Y-100434712D01*
X140994500Y-100658288D01*
X141038117Y-100877567D01*
X141123676Y-101084124D01*
X141247888Y-101270020D01*
X141286368Y-101308500D01*
X140496132Y-101308500D01*
X140376520Y-101188888D01*
X140190624Y-101064676D01*
X139984067Y-100979117D01*
X139764788Y-100935500D01*
X139541212Y-100935500D01*
X139321933Y-100979117D01*
X139115376Y-101064676D01*
X138929480Y-101188888D01*
X138771388Y-101346980D01*
X138647176Y-101532876D01*
X138561617Y-101739433D01*
X138518000Y-101958712D01*
X138518000Y-102182288D01*
X138561617Y-102401567D01*
X138647176Y-102608124D01*
X138771388Y-102794020D01*
X138929480Y-102952112D01*
X139115376Y-103076324D01*
X139321933Y-103161883D01*
X139541212Y-103205500D01*
X139764788Y-103205500D01*
X139956928Y-103167281D01*
X139956928Y-104500000D01*
X139972071Y-104653745D01*
X140016916Y-104801582D01*
X140089742Y-104937829D01*
X140130103Y-104987009D01*
X140133000Y-105016423D01*
X140133000Y-105016425D01*
X140139166Y-105079034D01*
X140059020Y-104998888D01*
X139873124Y-104874676D01*
X139666567Y-104789117D01*
X139447288Y-104745500D01*
X139223712Y-104745500D01*
X139004433Y-104789117D01*
X138797876Y-104874676D01*
X138611980Y-104998888D01*
X138518297Y-105092571D01*
X138471824Y-104980376D01*
X138347612Y-104794480D01*
X138189520Y-104636388D01*
X138003624Y-104512176D01*
X137797067Y-104426617D01*
X137590830Y-104385594D01*
X137243072Y-104037837D01*
X137243072Y-103791750D01*
X137226128Y-103619715D01*
X137175947Y-103454291D01*
X137094458Y-103301836D01*
X136984792Y-103168208D01*
X136851164Y-103058542D01*
X136743645Y-103001072D01*
X136838000Y-103001072D01*
X136962482Y-102988812D01*
X137082180Y-102952502D01*
X137192494Y-102893537D01*
X137289185Y-102814185D01*
X137368537Y-102717494D01*
X137427502Y-102607180D01*
X137463812Y-102487482D01*
X137476072Y-102363000D01*
X137476072Y-101713000D01*
X137463812Y-101588518D01*
X137427502Y-101468820D01*
X137368537Y-101358506D01*
X137289185Y-101261815D01*
X137192494Y-101182463D01*
X137082180Y-101123498D01*
X136965159Y-101088000D01*
X137082180Y-101052502D01*
X137192494Y-100993537D01*
X137289185Y-100914185D01*
X137368537Y-100817494D01*
X137427502Y-100707180D01*
X137463812Y-100587482D01*
X137476072Y-100463000D01*
X137473000Y-100423750D01*
X137314250Y-100265000D01*
X136435000Y-100265000D01*
X136435000Y-100285000D01*
X136181000Y-100285000D01*
X136181000Y-100265000D01*
X136161000Y-100265000D01*
X136161000Y-100085000D01*
X137761928Y-100085000D01*
X137774188Y-100209482D01*
X137810498Y-100329180D01*
X137869463Y-100439494D01*
X137948815Y-100536185D01*
X138045506Y-100615537D01*
X138155820Y-100674502D01*
X138275518Y-100710812D01*
X138400000Y-100723072D01*
X138814250Y-100720000D01*
X138973000Y-100561250D01*
X138973000Y-99724500D01*
X137923750Y-99724500D01*
X137765000Y-99883250D01*
X137761928Y-100085000D01*
X136161000Y-100085000D01*
X136161000Y-100011000D01*
X136181000Y-100011000D01*
X136181000Y-99336750D01*
X136435000Y-99336750D01*
X136435000Y-100011000D01*
X137314250Y-100011000D01*
X137473000Y-99852250D01*
X137476072Y-99813000D01*
X137463812Y-99688518D01*
X137427502Y-99568820D01*
X137368537Y-99458506D01*
X137289185Y-99361815D01*
X137192494Y-99282463D01*
X137082180Y-99223498D01*
X136962482Y-99187188D01*
X136838000Y-99174928D01*
X136593750Y-99178000D01*
X136435000Y-99336750D01*
X136181000Y-99336750D01*
X136022250Y-99178000D01*
X135778000Y-99174928D01*
X135653518Y-99187188D01*
X135533820Y-99223498D01*
X135423506Y-99282463D01*
X135326815Y-99361815D01*
X135309402Y-99383033D01*
X135177813Y-99312697D01*
X135010236Y-99261864D01*
X134941244Y-99255069D01*
X134882180Y-99223498D01*
X134762482Y-99187188D01*
X134638000Y-99174928D01*
X133578000Y-99174928D01*
X133453518Y-99187188D01*
X133333820Y-99223498D01*
X133223506Y-99282463D01*
X133126815Y-99361815D01*
X133047463Y-99458506D01*
X132988498Y-99568820D01*
X132952188Y-99688518D01*
X132939928Y-99813000D01*
X132939928Y-99984854D01*
X132779788Y-99953000D01*
X132556212Y-99953000D01*
X132336933Y-99996617D01*
X132130376Y-100082176D01*
X131944480Y-100206388D01*
X131786388Y-100364480D01*
X131662176Y-100550376D01*
X131576617Y-100756933D01*
X131533000Y-100976212D01*
X131533000Y-101199788D01*
X131576617Y-101419067D01*
X131662176Y-101625624D01*
X131786388Y-101811520D01*
X131944480Y-101969612D01*
X132130376Y-102093824D01*
X132336933Y-102179383D01*
X132556212Y-102223000D01*
X132779788Y-102223000D01*
X132939928Y-102191146D01*
X132939928Y-102363000D01*
X132952188Y-102487482D01*
X132988498Y-102607180D01*
X133047463Y-102717494D01*
X133126815Y-102814185D01*
X133219000Y-102889839D01*
X133219001Y-103388909D01*
X133184053Y-103454291D01*
X133133872Y-103619715D01*
X133116928Y-103791750D01*
X133116928Y-104704250D01*
X133133872Y-104876285D01*
X133184053Y-105041709D01*
X133265542Y-105194164D01*
X133353500Y-105301341D01*
X133353500Y-105633059D01*
X133265542Y-105740236D01*
X133184053Y-105892691D01*
X133133872Y-106058115D01*
X133116928Y-106230150D01*
X133116928Y-107142650D01*
X133133872Y-107314685D01*
X133184053Y-107480109D01*
X133265542Y-107632564D01*
X133375208Y-107766192D01*
X133508836Y-107875858D01*
X133661291Y-107957347D01*
X133728499Y-107977734D01*
X134248505Y-108497741D01*
X134276341Y-108531659D01*
X134411709Y-108642753D01*
X134566149Y-108725303D01*
X134630397Y-108744792D01*
X134733724Y-108776136D01*
X134766924Y-108779406D01*
X134864333Y-108789000D01*
X134864339Y-108789000D01*
X134907999Y-108793300D01*
X134951659Y-108789000D01*
X137544017Y-108789000D01*
X137582525Y-108846632D01*
X137697893Y-108962000D01*
X134005131Y-108962000D01*
X133001572Y-107958442D01*
X133001572Y-107898750D01*
X132984628Y-107726715D01*
X132934447Y-107561291D01*
X132852958Y-107408836D01*
X132743292Y-107275208D01*
X132609664Y-107165542D01*
X132458981Y-107085000D01*
X132609664Y-107004458D01*
X132743292Y-106894792D01*
X132852958Y-106761164D01*
X132934447Y-106608709D01*
X132984628Y-106443285D01*
X133001572Y-106271250D01*
X133001572Y-105358750D01*
X132984628Y-105186715D01*
X132934447Y-105021291D01*
X132852958Y-104868836D01*
X132743292Y-104735208D01*
X132609664Y-104625542D01*
X132457209Y-104544053D01*
X132291785Y-104493872D01*
X132119750Y-104476928D01*
X131632250Y-104476928D01*
X131460215Y-104493872D01*
X131294791Y-104544053D01*
X131142336Y-104625542D01*
X131008708Y-104735208D01*
X131003492Y-104741564D01*
X130939685Y-104663815D01*
X130842994Y-104584463D01*
X130732680Y-104525498D01*
X130612982Y-104489188D01*
X130488500Y-104476928D01*
X130286750Y-104480000D01*
X130128000Y-104638750D01*
X130128000Y-105688000D01*
X130148000Y-105688000D01*
X130148000Y-105942000D01*
X130128000Y-105942000D01*
X130128000Y-105962000D01*
X129874000Y-105962000D01*
X129874000Y-105942000D01*
X129854000Y-105942000D01*
X129854000Y-105688000D01*
X129874000Y-105688000D01*
X129874000Y-104638750D01*
X129715250Y-104480000D01*
X129513500Y-104476928D01*
X129389018Y-104489188D01*
X129269320Y-104525498D01*
X129159006Y-104584463D01*
X129062315Y-104663815D01*
X128982963Y-104760506D01*
X128923998Y-104870820D01*
X128887688Y-104990518D01*
X128875428Y-105115000D01*
X128876979Y-105324105D01*
X128867037Y-105305506D01*
X128787685Y-105208815D01*
X128690994Y-105129463D01*
X128580680Y-105070498D01*
X128460982Y-105034188D01*
X128336500Y-105021928D01*
X127922250Y-105025000D01*
X127763500Y-105183750D01*
X127763500Y-106020500D01*
X127783500Y-106020500D01*
X127783500Y-106274500D01*
X127763500Y-106274500D01*
X127763500Y-106294500D01*
X127509500Y-106294500D01*
X127509500Y-106274500D01*
X127489500Y-106274500D01*
X127489500Y-106020500D01*
X127509500Y-106020500D01*
X127509500Y-105183750D01*
X127350750Y-105025000D01*
X127173752Y-105023687D01*
X127260324Y-104894124D01*
X127345883Y-104687567D01*
X127389500Y-104468288D01*
X127389500Y-104244712D01*
X127345883Y-104025433D01*
X127260324Y-103818876D01*
X127136112Y-103632980D01*
X126978020Y-103474888D01*
X126792124Y-103350676D01*
X126585567Y-103265117D01*
X126366288Y-103221500D01*
X126142712Y-103221500D01*
X125923433Y-103265117D01*
X125716876Y-103350676D01*
X125530980Y-103474888D01*
X125372888Y-103632980D01*
X125248676Y-103818876D01*
X125235548Y-103850569D01*
X125216112Y-103821480D01*
X125058020Y-103663388D01*
X124872124Y-103539176D01*
X124665567Y-103453617D01*
X124446288Y-103410000D01*
X124222712Y-103410000D01*
X124003433Y-103453617D01*
X123796876Y-103539176D01*
X123610980Y-103663388D01*
X123452888Y-103821480D01*
X123328676Y-104007376D01*
X123243117Y-104213933D01*
X123202094Y-104420171D01*
X122990759Y-104631506D01*
X122956842Y-104659341D01*
X122929007Y-104693258D01*
X122929005Y-104693260D01*
X122845748Y-104794709D01*
X122763198Y-104949148D01*
X122712364Y-105116726D01*
X122710000Y-105140729D01*
X122710000Y-98529872D01*
X125515000Y-98529872D01*
X125515000Y-98970128D01*
X125600890Y-99401925D01*
X125769369Y-99808669D01*
X126013962Y-100174729D01*
X126325271Y-100486038D01*
X126691331Y-100730631D01*
X127098075Y-100899110D01*
X127529872Y-100985000D01*
X127970128Y-100985000D01*
X128401925Y-100899110D01*
X128808669Y-100730631D01*
X129174729Y-100486038D01*
X129486038Y-100174729D01*
X129730631Y-99808669D01*
X129899110Y-99401925D01*
X129985000Y-98970128D01*
X129985000Y-98529872D01*
X129899110Y-98098075D01*
X129730631Y-97691331D01*
X129719193Y-97674212D01*
X132041000Y-97674212D01*
X132041000Y-97897788D01*
X132084617Y-98117067D01*
X132170176Y-98323624D01*
X132294388Y-98509520D01*
X132452480Y-98667612D01*
X132638376Y-98791824D01*
X132844933Y-98877383D01*
X133064212Y-98921000D01*
X133287788Y-98921000D01*
X133434838Y-98891750D01*
X133536836Y-98975458D01*
X133689291Y-99056947D01*
X133854715Y-99107128D01*
X134026750Y-99124072D01*
X134514250Y-99124072D01*
X134686285Y-99107128D01*
X134851709Y-99056947D01*
X135004164Y-98975458D01*
X135137792Y-98865792D01*
X135143008Y-98859436D01*
X135206815Y-98937185D01*
X135303506Y-99016537D01*
X135413820Y-99075502D01*
X135533518Y-99111812D01*
X135658000Y-99124072D01*
X135859750Y-99121000D01*
X136018500Y-98962250D01*
X136018500Y-97913000D01*
X136272500Y-97913000D01*
X136272500Y-98962250D01*
X136431250Y-99121000D01*
X136633000Y-99124072D01*
X136757482Y-99111812D01*
X136877180Y-99075502D01*
X136987494Y-99016537D01*
X137084185Y-98937185D01*
X137163537Y-98840494D01*
X137222502Y-98730180D01*
X137258812Y-98610482D01*
X137271072Y-98486000D01*
X137268000Y-98071750D01*
X137109250Y-97913000D01*
X136272500Y-97913000D01*
X136018500Y-97913000D01*
X135998500Y-97913000D01*
X135998500Y-97659000D01*
X136018500Y-97659000D01*
X136018500Y-96609750D01*
X136272500Y-96609750D01*
X136272500Y-97659000D01*
X137109250Y-97659000D01*
X137268000Y-97500250D01*
X137268159Y-97478750D01*
X137761928Y-97478750D01*
X137761928Y-97966250D01*
X137778872Y-98138285D01*
X137829053Y-98303709D01*
X137910542Y-98456164D01*
X138020208Y-98589792D01*
X138026564Y-98595008D01*
X137948815Y-98658815D01*
X137869463Y-98755506D01*
X137810498Y-98865820D01*
X137774188Y-98985518D01*
X137761928Y-99110000D01*
X137765000Y-99311750D01*
X137923750Y-99470500D01*
X138973000Y-99470500D01*
X138973000Y-99450500D01*
X139227000Y-99450500D01*
X139227000Y-99470500D01*
X139247000Y-99470500D01*
X139247000Y-99724500D01*
X139227000Y-99724500D01*
X139227000Y-100561250D01*
X139385750Y-100720000D01*
X139800000Y-100723072D01*
X139924482Y-100710812D01*
X140044180Y-100674502D01*
X140154494Y-100615537D01*
X140251185Y-100536185D01*
X140330537Y-100439494D01*
X140389502Y-100329180D01*
X140397264Y-100303591D01*
X140470518Y-100325812D01*
X140595000Y-100338072D01*
X140609250Y-100335000D01*
X140768000Y-100176250D01*
X140768000Y-98852000D01*
X140748000Y-98852000D01*
X140748000Y-98598000D01*
X140768000Y-98598000D01*
X140768000Y-97273750D01*
X140609250Y-97115000D01*
X140595000Y-97111928D01*
X140470518Y-97124188D01*
X140374586Y-97153289D01*
X140370947Y-97141291D01*
X140289458Y-96988836D01*
X140179792Y-96855208D01*
X140097478Y-96787654D01*
X140153612Y-96731520D01*
X140277824Y-96545624D01*
X140363383Y-96339067D01*
X140407000Y-96119788D01*
X140407000Y-95896212D01*
X140363383Y-95676933D01*
X140277824Y-95470376D01*
X140153612Y-95284480D01*
X139995520Y-95126388D01*
X139809624Y-95002176D01*
X139603067Y-94916617D01*
X139383788Y-94873000D01*
X139160212Y-94873000D01*
X138940933Y-94916617D01*
X138734376Y-95002176D01*
X138548480Y-95126388D01*
X138390388Y-95284480D01*
X138266176Y-95470376D01*
X138180617Y-95676933D01*
X138137000Y-95896212D01*
X138137000Y-96119788D01*
X138180617Y-96339067D01*
X138211001Y-96412420D01*
X138211001Y-96714987D01*
X138153836Y-96745542D01*
X138020208Y-96855208D01*
X137910542Y-96988836D01*
X137829053Y-97141291D01*
X137778872Y-97306715D01*
X137761928Y-97478750D01*
X137268159Y-97478750D01*
X137271072Y-97086000D01*
X137258812Y-96961518D01*
X137222502Y-96841820D01*
X137163537Y-96731506D01*
X137084185Y-96634815D01*
X136987494Y-96555463D01*
X136877180Y-96496498D01*
X136757482Y-96460188D01*
X136633000Y-96447928D01*
X136431250Y-96451000D01*
X136272500Y-96609750D01*
X136018500Y-96609750D01*
X135859750Y-96451000D01*
X135658000Y-96447928D01*
X135533518Y-96460188D01*
X135413820Y-96496498D01*
X135303506Y-96555463D01*
X135206815Y-96634815D01*
X135143008Y-96712564D01*
X135137792Y-96706208D01*
X135004164Y-96596542D01*
X134851709Y-96515053D01*
X134686285Y-96464872D01*
X134514250Y-96447928D01*
X134026750Y-96447928D01*
X133854715Y-96464872D01*
X133689291Y-96515053D01*
X133536836Y-96596542D01*
X133434838Y-96680250D01*
X133287788Y-96651000D01*
X133064212Y-96651000D01*
X132844933Y-96694617D01*
X132638376Y-96780176D01*
X132452480Y-96904388D01*
X132294388Y-97062480D01*
X132170176Y-97248376D01*
X132084617Y-97454933D01*
X132041000Y-97674212D01*
X129719193Y-97674212D01*
X129486038Y-97325271D01*
X129174729Y-97013962D01*
X128808669Y-96769369D01*
X128401925Y-96600890D01*
X127970128Y-96515000D01*
X127529872Y-96515000D01*
X127098075Y-96600890D01*
X126691331Y-96769369D01*
X126325271Y-97013962D01*
X126013962Y-97325271D01*
X125769369Y-97691331D01*
X125600890Y-98098075D01*
X125515000Y-98529872D01*
X122710000Y-98529872D01*
X122710000Y-92534729D01*
X122728386Y-92347215D01*
X122772757Y-92200252D01*
X122844829Y-92064703D01*
X122941852Y-91945742D01*
X123060144Y-91847882D01*
X123195181Y-91774868D01*
X123341833Y-91729471D01*
X123527092Y-91710000D01*
X173699808Y-91710000D01*
X173698815Y-91710815D01*
G37*
G04 #@! TD.AperFunction*
D18*
X124662250Y-107654000D02*
X125461500Y-107654000D01*
X125461500Y-107634000D01*
X125715500Y-107634000D01*
X125715500Y-107654000D01*
X125735500Y-107654000D01*
X125735500Y-107908000D01*
X125715500Y-107908000D01*
X125715500Y-108657250D01*
X125874250Y-108816000D01*
X126038500Y-108819072D01*
X126162982Y-108806812D01*
X126282680Y-108770502D01*
X126392994Y-108711537D01*
X126413982Y-108694313D01*
X126447042Y-108756164D01*
X126556708Y-108889792D01*
X126690336Y-108999458D01*
X126842791Y-109080947D01*
X127008215Y-109131128D01*
X127180250Y-109148072D01*
X128092750Y-109148072D01*
X128264785Y-109131128D01*
X128311359Y-109117000D01*
X128932934Y-109117000D01*
X128942553Y-109148709D01*
X129024042Y-109301164D01*
X129133708Y-109434792D01*
X129267336Y-109544458D01*
X129419791Y-109625947D01*
X129585215Y-109676128D01*
X129757250Y-109693072D01*
X130244750Y-109693072D01*
X130416785Y-109676128D01*
X130582209Y-109625947D01*
X130734664Y-109544458D01*
X130868292Y-109434792D01*
X130938500Y-109349244D01*
X131008708Y-109434792D01*
X131142336Y-109544458D01*
X131294791Y-109625947D01*
X131460215Y-109676128D01*
X131632250Y-109693072D01*
X132119750Y-109693072D01*
X132291785Y-109676128D01*
X132457209Y-109625947D01*
X132494099Y-109606229D01*
X133124221Y-110236352D01*
X133148078Y-110265422D01*
X133178026Y-110290000D01*
X123534729Y-110290000D01*
X123347216Y-110271614D01*
X123200252Y-110227243D01*
X123064703Y-110155171D01*
X122945742Y-110058148D01*
X122847882Y-109939856D01*
X122774868Y-109804819D01*
X122729471Y-109658167D01*
X122710000Y-109472908D01*
X122710000Y-108181000D01*
X124500428Y-108181000D01*
X124512688Y-108305482D01*
X124548998Y-108425180D01*
X124607963Y-108535494D01*
X124687315Y-108632185D01*
X124784006Y-108711537D01*
X124894320Y-108770502D01*
X125014018Y-108806812D01*
X125138500Y-108819072D01*
X125302750Y-108816000D01*
X125461500Y-108657250D01*
X125461500Y-107908000D01*
X124662250Y-107908000D01*
X124503500Y-108066750D01*
X124500428Y-108181000D01*
X122710000Y-108181000D01*
X122710000Y-107700802D01*
X122784006Y-107761537D01*
X122894320Y-107820502D01*
X123014018Y-107856812D01*
X123138500Y-107869072D01*
X124038500Y-107869072D01*
X124162982Y-107856812D01*
X124282680Y-107820502D01*
X124392994Y-107761537D01*
X124489685Y-107682185D01*
X124569037Y-107585494D01*
X124577643Y-107569393D01*
X124662250Y-107654000D01*
G04 #@! TA.AperFunction,Conductor*
D19*
G36*
X124662250Y-107654000D02*
G01*
X125461500Y-107654000D01*
X125461500Y-107634000D01*
X125715500Y-107634000D01*
X125715500Y-107654000D01*
X125735500Y-107654000D01*
X125735500Y-107908000D01*
X125715500Y-107908000D01*
X125715500Y-108657250D01*
X125874250Y-108816000D01*
X126038500Y-108819072D01*
X126162982Y-108806812D01*
X126282680Y-108770502D01*
X126392994Y-108711537D01*
X126413982Y-108694313D01*
X126447042Y-108756164D01*
X126556708Y-108889792D01*
X126690336Y-108999458D01*
X126842791Y-109080947D01*
X127008215Y-109131128D01*
X127180250Y-109148072D01*
X128092750Y-109148072D01*
X128264785Y-109131128D01*
X128311359Y-109117000D01*
X128932934Y-109117000D01*
X128942553Y-109148709D01*
X129024042Y-109301164D01*
X129133708Y-109434792D01*
X129267336Y-109544458D01*
X129419791Y-109625947D01*
X129585215Y-109676128D01*
X129757250Y-109693072D01*
X130244750Y-109693072D01*
X130416785Y-109676128D01*
X130582209Y-109625947D01*
X130734664Y-109544458D01*
X130868292Y-109434792D01*
X130938500Y-109349244D01*
X131008708Y-109434792D01*
X131142336Y-109544458D01*
X131294791Y-109625947D01*
X131460215Y-109676128D01*
X131632250Y-109693072D01*
X132119750Y-109693072D01*
X132291785Y-109676128D01*
X132457209Y-109625947D01*
X132494099Y-109606229D01*
X133124221Y-110236352D01*
X133148078Y-110265422D01*
X133178026Y-110290000D01*
X123534729Y-110290000D01*
X123347216Y-110271614D01*
X123200252Y-110227243D01*
X123064703Y-110155171D01*
X122945742Y-110058148D01*
X122847882Y-109939856D01*
X122774868Y-109804819D01*
X122729471Y-109658167D01*
X122710000Y-109472908D01*
X122710000Y-108181000D01*
X124500428Y-108181000D01*
X124512688Y-108305482D01*
X124548998Y-108425180D01*
X124607963Y-108535494D01*
X124687315Y-108632185D01*
X124784006Y-108711537D01*
X124894320Y-108770502D01*
X125014018Y-108806812D01*
X125138500Y-108819072D01*
X125302750Y-108816000D01*
X125461500Y-108657250D01*
X125461500Y-107908000D01*
X124662250Y-107908000D01*
X124503500Y-108066750D01*
X124500428Y-108181000D01*
X122710000Y-108181000D01*
X122710000Y-107700802D01*
X122784006Y-107761537D01*
X122894320Y-107820502D01*
X123014018Y-107856812D01*
X123138500Y-107869072D01*
X124038500Y-107869072D01*
X124162982Y-107856812D01*
X124282680Y-107820502D01*
X124392994Y-107761537D01*
X124489685Y-107682185D01*
X124569037Y-107585494D01*
X124577643Y-107569393D01*
X124662250Y-107654000D01*
G37*
G04 #@! TD.AperFunction*
D18*
X177290000Y-102715271D02*
X177271614Y-102902784D01*
X177227243Y-103049748D01*
X177155171Y-103185297D01*
X177058148Y-103304258D01*
X176939856Y-103402118D01*
X176804819Y-103475132D01*
X176658167Y-103520529D01*
X176472908Y-103540000D01*
X172598955Y-103540000D01*
X172635000Y-103358788D01*
X172635000Y-103189630D01*
X173433497Y-102391133D01*
X173494176Y-102537624D01*
X173618388Y-102723520D01*
X173776480Y-102881612D01*
X173962376Y-103005824D01*
X174168933Y-103091383D01*
X174388212Y-103135000D01*
X174611788Y-103135000D01*
X174831067Y-103091383D01*
X175037624Y-103005824D01*
X175223520Y-102881612D01*
X175381612Y-102723520D01*
X175505824Y-102537624D01*
X175591383Y-102331067D01*
X175632406Y-102124830D01*
X176128241Y-101628995D01*
X176162159Y-101601159D01*
X176224503Y-101525193D01*
X176324209Y-101494947D01*
X176476664Y-101413458D01*
X176610292Y-101303792D01*
X176719958Y-101170164D01*
X176801447Y-101017709D01*
X176851628Y-100852285D01*
X176868572Y-100680250D01*
X176868572Y-100192750D01*
X176851628Y-100020715D01*
X176801447Y-99855291D01*
X176719958Y-99702836D01*
X176610292Y-99569208D01*
X176603936Y-99563992D01*
X176681685Y-99500185D01*
X176761037Y-99403494D01*
X176820002Y-99293180D01*
X176856312Y-99173482D01*
X176868572Y-99049000D01*
X176865500Y-98847250D01*
X176706750Y-98688500D01*
X175657500Y-98688500D01*
X175657500Y-98708500D01*
X175403500Y-98708500D01*
X175403500Y-98688500D01*
X175383500Y-98688500D01*
X175383500Y-98434500D01*
X175403500Y-98434500D01*
X175403500Y-97597750D01*
X175388500Y-97582750D01*
X175388500Y-96705000D01*
X175642500Y-96705000D01*
X175642500Y-97754250D01*
X175657500Y-97769250D01*
X175657500Y-98434500D01*
X176706750Y-98434500D01*
X176865500Y-98275750D01*
X176868572Y-98074000D01*
X176856312Y-97949518D01*
X176820002Y-97829820D01*
X176761037Y-97719506D01*
X176681685Y-97622815D01*
X176584994Y-97543463D01*
X176581985Y-97541855D01*
X176592502Y-97522180D01*
X176628812Y-97402482D01*
X176641072Y-97278000D01*
X176638000Y-96863750D01*
X176479250Y-96705000D01*
X175642500Y-96705000D01*
X175388500Y-96705000D01*
X175368500Y-96705000D01*
X175368500Y-96451000D01*
X175388500Y-96451000D01*
X175388500Y-96431000D01*
X175642500Y-96431000D01*
X175642500Y-96451000D01*
X176479250Y-96451000D01*
X176638000Y-96292250D01*
X176641072Y-95878000D01*
X176628812Y-95753518D01*
X176592502Y-95633820D01*
X176533537Y-95523506D01*
X176454185Y-95426815D01*
X176433913Y-95410178D01*
X176489502Y-95306180D01*
X176525812Y-95186482D01*
X176538072Y-95062000D01*
X176538072Y-94455975D01*
X176724212Y-94493000D01*
X176947788Y-94493000D01*
X177167067Y-94449383D01*
X177290001Y-94398462D01*
X177290000Y-102715271D01*
G04 #@! TA.AperFunction,Conductor*
D19*
G36*
X177290000Y-102715271D02*
G01*
X177271614Y-102902784D01*
X177227243Y-103049748D01*
X177155171Y-103185297D01*
X177058148Y-103304258D01*
X176939856Y-103402118D01*
X176804819Y-103475132D01*
X176658167Y-103520529D01*
X176472908Y-103540000D01*
X172598955Y-103540000D01*
X172635000Y-103358788D01*
X172635000Y-103189630D01*
X173433497Y-102391133D01*
X173494176Y-102537624D01*
X173618388Y-102723520D01*
X173776480Y-102881612D01*
X173962376Y-103005824D01*
X174168933Y-103091383D01*
X174388212Y-103135000D01*
X174611788Y-103135000D01*
X174831067Y-103091383D01*
X175037624Y-103005824D01*
X175223520Y-102881612D01*
X175381612Y-102723520D01*
X175505824Y-102537624D01*
X175591383Y-102331067D01*
X175632406Y-102124830D01*
X176128241Y-101628995D01*
X176162159Y-101601159D01*
X176224503Y-101525193D01*
X176324209Y-101494947D01*
X176476664Y-101413458D01*
X176610292Y-101303792D01*
X176719958Y-101170164D01*
X176801447Y-101017709D01*
X176851628Y-100852285D01*
X176868572Y-100680250D01*
X176868572Y-100192750D01*
X176851628Y-100020715D01*
X176801447Y-99855291D01*
X176719958Y-99702836D01*
X176610292Y-99569208D01*
X176603936Y-99563992D01*
X176681685Y-99500185D01*
X176761037Y-99403494D01*
X176820002Y-99293180D01*
X176856312Y-99173482D01*
X176868572Y-99049000D01*
X176865500Y-98847250D01*
X176706750Y-98688500D01*
X175657500Y-98688500D01*
X175657500Y-98708500D01*
X175403500Y-98708500D01*
X175403500Y-98688500D01*
X175383500Y-98688500D01*
X175383500Y-98434500D01*
X175403500Y-98434500D01*
X175403500Y-97597750D01*
X175388500Y-97582750D01*
X175388500Y-96705000D01*
X175642500Y-96705000D01*
X175642500Y-97754250D01*
X175657500Y-97769250D01*
X175657500Y-98434500D01*
X176706750Y-98434500D01*
X176865500Y-98275750D01*
X176868572Y-98074000D01*
X176856312Y-97949518D01*
X176820002Y-97829820D01*
X176761037Y-97719506D01*
X176681685Y-97622815D01*
X176584994Y-97543463D01*
X176581985Y-97541855D01*
X176592502Y-97522180D01*
X176628812Y-97402482D01*
X176641072Y-97278000D01*
X176638000Y-96863750D01*
X176479250Y-96705000D01*
X175642500Y-96705000D01*
X175388500Y-96705000D01*
X175368500Y-96705000D01*
X175368500Y-96451000D01*
X175388500Y-96451000D01*
X175388500Y-96431000D01*
X175642500Y-96431000D01*
X175642500Y-96451000D01*
X176479250Y-96451000D01*
X176638000Y-96292250D01*
X176641072Y-95878000D01*
X176628812Y-95753518D01*
X176592502Y-95633820D01*
X176533537Y-95523506D01*
X176454185Y-95426815D01*
X176433913Y-95410178D01*
X176489502Y-95306180D01*
X176525812Y-95186482D01*
X176538072Y-95062000D01*
X176538072Y-94455975D01*
X176724212Y-94493000D01*
X176947788Y-94493000D01*
X177167067Y-94449383D01*
X177290001Y-94398462D01*
X177290000Y-102715271D01*
G37*
G04 #@! TD.AperFunction*
M02*
