M48
INCH,TZ
T1C0.0157
T2C0.0300
T3C0.0394
%
G90
G05
T1
X48951Y-41159
X49706Y-41085
X51556Y-42160
X52231Y-39798
X52431Y-38498
X54120Y-41543
X54831Y-37798
X54856Y-41685
X54981Y-40185
X55956Y-39585
X56731Y-39898
X57185Y-38065
X59006Y-39798
X59006Y-42998
X67520Y-36811
X67520Y-40648
X68701Y-40157
X69620Y-36755
T2
X60336Y-38743
X60336Y-41943
X61320Y-39727
X61320Y-42927
X62305Y-38743
X62305Y-41943
T3
X54620Y-42480
X55620Y-42480
X56620Y-42480
X57620Y-42480
T0
M30
